<?xml version="1.0" standalone="no"?>
<!DOCTYPE svg PUBLIC "-//W3C//DTD SVG 20010904//EN"
 "http://www.w3.org/TR/2001/REC-SVG-20010904/DTD/svg10.dtd">
<svg version="1.0" xmlns="http://www.w3.org/2000/svg"
 width="280.000000pt" height="280.000000pt" viewBox="0 0 280.000000 280.000000"
 preserveAspectRatio="xMidYMid meet">
<metadata>
Created by potrace 1.14, written by Peter Selinger 2001-2017
</metadata>
<g transform="translate(0.000000,280.000000) scale(0.100000,-0.100000)"
fill="#000000" stroke="none">
<path d="M11 2791 c-11 -7 -12 -13 -3 -23 9 -11 9 -17 -1 -27 -9 -10 -8 -11 5
-6 13 5 16 2 13 -14 -2 -14 1 -21 11 -21 15 0 19 16 5 22 -4 2 -5 12 0 23 8
20 8 19 14 -2 4 -13 12 -20 21 -16 8 3 14 0 14 -6 0 -6 -4 -11 -10 -11 -5 0
-10 -7 -10 -15 0 -20 10 -19 25 2 8 10 14 12 19 5 3 -6 -1 -17 -10 -26 -8 -9
-12 -20 -9 -26 9 -15 -5 -51 -16 -44 -6 3 -7 20 -3 37 l6 32 -23 -29 c-20 -26
-24 -27 -35 -12 -7 10 -15 13 -18 7 -3 -5 0 -11 6 -14 10 -3 10 -7 -1 -20 -9
-11 -10 -17 -2 -17 6 0 11 6 11 13 1 6 8 0 16 -15 8 -16 19 -28 24 -28 14 0
12 6 -6 25 -9 9 -14 19 -10 22 8 8 47 -37 41 -48 -3 -4 -1 -10 3 -13 5 -3 12
18 15 47 5 53 34 127 49 127 4 0 8 12 8 27 0 21 3 24 12 15 9 -9 8 -20 -7 -49
-10 -21 -19 -53 -20 -71 -2 -41 10 -22 19 31 4 20 11 37 15 37 13 0 20 37 9
48 -6 6 -4 11 5 15 18 7 31 -33 17 -47 -6 -6 -10 -14 -10 -20 0 -5 6 -1 14 10
9 11 12 31 9 49 -8 40 -10 41 -33 20 -16 -14 -20 -15 -20 -4 0 8 -10 15 -21
16 -27 2 -50 -19 -39 -37 10 -16 1 -42 -12 -34 -5 3 -7 12 -4 19 2 7 -2 12
-11 11 -9 0 -18 5 -21 13 -3 8 0 11 6 7 6 -3 13 -2 16 3 4 5 1 13 -5 17 -6 4
-16 -1 -21 -10 -5 -9 -16 -16 -23 -16 -18 0 -20 16 -2 23 6 3 8 6 2 6 -5 0
-16 -3 -24 -8z m142 -7 c3 -4 -1 -20 -9 -36 -9 -17 -18 -27 -21 -25 -3 3 -1
12 3 19 5 7 7 21 6 31 -3 17 9 23 21 11z"/>
<path d="M770 2796 c0 -2 7 -23 15 -46 8 -23 15 -45 15 -48 0 -2 -20 -2 -44 1
-27 4 -49 2 -60 -6 -15 -11 -13 -16 19 -47 19 -18 35 -37 35 -41 0 -4 -16 -5
-36 -2 l-36 6 36 -47 c20 -26 36 -52 36 -57 0 -5 -14 -9 -32 -9 l-32 0 32 -33
c37 -38 39 -47 13 -47 -16 0 -18 -5 -11 -32 4 -18 11 -41 15 -50 6 -14 2 -18
-15 -18 -22 0 -23 -1 -5 -20 18 -19 21 -32 30 -120 3 -25 8 -65 11 -90 l6 -46
-44 -1 c-39 -1 -40 0 -14 8 16 4 33 6 38 3 4 -3 8 2 8 11 0 9 -4 13 -10 10 -5
-3 -27 3 -48 14 -47 24 -165 37 -215 23 -29 -8 -40 -7 -51 4 -19 18 -23 18
-28 -4 -4 -13 -16 -18 -51 -20 -25 -1 -49 3 -52 8 -4 6 -11 8 -16 4 -23 -14
-59 -13 -73 2 -17 17 -36 11 -36 -11 0 -19 -75 -69 -89 -60 -6 3 -11 -2 -11
-12 0 -11 -16 -34 -35 -53 -37 -35 -46 -56 -20 -46 9 3 15 0 15 -10 0 -8 4
-13 9 -10 5 3 11 -4 14 -15 3 -12 10 -18 16 -15 5 4 15 -3 21 -14 7 -13 18
-19 26 -16 8 3 14 -1 14 -10 0 -8 4 -12 10 -9 7 4 7 -3 0 -20 -6 -15 -10 -31
-10 -36 0 -16 18 -10 23 9 3 12 5 9 6 -8 2 -25 2 -25 17 -5 16 20 16 20 9 -2
-11 -38 5 -26 25 20 17 36 18 22 2 -23 -5 -13 -4 -13 13 0 15 12 17 12 10 1
-11 -18 -14 -101 -3 -101 4 0 8 -6 8 -12 -1 -7 -55 43 -121 112 -203 210 -136
105 116 -181 127 -144 231 -266 233 -270 2 -4 -11 -10 -28 -14 -25 -5 -37 -2
-54 14 -12 12 -26 18 -30 14 -4 -4 -4 0 -1 8 3 9 -4 23 -17 35 -23 19 -23 19
-8 -1 14 -18 14 -19 -2 -6 -10 7 -15 17 -12 22 8 13 -77 110 -89 102 -6 -3 -7
-2 -4 4 5 8 -206 263 -218 263 -20 0 14 -48 135 -190 78 -91 159 -186 181
-213 22 -26 44 -45 49 -42 5 3 12 0 16 -6 4 -8 3 -9 -4 -5 -7 4 -12 2 -12 -3
0 -19 -19 -12 -44 17 -13 15 -75 86 -138 158 -63 72 -130 151 -151 175 -29 35
-37 40 -37 24 0 -11 15 -36 33 -57 71 -80 135 -156 200 -236 73 -91 72 -85 22
-139 l-21 -22 -44 93 c-42 91 -43 93 -61 75 -11 -11 -19 -26 -19 -34 0 -8 -4
-15 -10 -15 -5 0 -10 21 -10 46 0 38 -3 45 -16 40 -12 -4 -15 -2 -11 9 4 8 2
17 -3 20 -5 3 -11 -5 -13 -17 -4 -18 -5 -16 -5 7 0 59 -1 61 -22 36 -17 -19
-20 -38 -20 -111 l0 -88 58 -61 c32 -34 62 -61 66 -61 4 0 21 -10 39 -22 18
-13 33 -23 35 -24 7 -3 -55 -154 -79 -194 -23 -37 -36 -48 -73 -59 l-46 -13 0
-114 c0 -63 4 -114 9 -114 4 0 20 9 34 20 l26 21 -5 -33 c-7 -55 -12 -93 -13
-100 -1 -5 -6 -8 -12 -8 -8 0 -8 5 1 15 15 18 1 19 -23 1 -12 -9 -17 -27 -17
-57 l1 -44 19 23 c10 12 21 18 24 13 8 -12 -22 -163 -35 -175 -15 -16 -10
-227 7 -261 15 -32 15 -30 -1 45 -3 14 6 3 19 -25 19 -38 24 -43 19 -20 -3 17
-11 43 -19 59 -12 24 -11 26 1 16 8 -6 22 -31 31 -56 9 -24 23 -44 31 -44 10
0 7 11 -11 43 -25 43 -51 125 -42 134 2 3 12 -18 20 -47 9 -28 25 -67 37 -86
22 -36 37 -47 20 -15 -6 10 -8 21 -4 24 3 4 1 12 -5 19 -17 21 -51 117 -40
115 6 -1 13 4 16 12 2 8 0 11 -6 7 -15 -9 -24 10 -27 60 -4 56 9 57 23 1 14
-52 46 -127 38 -85 -3 14 -9 34 -12 45 -3 10 9 -8 27 -40 35 -63 53 -70 25
-10 -41 88 -93 229 -88 238 4 6 8 2 10 -8 2 -9 8 -15 13 -12 5 3 6 -1 3 -9 -3
-8 -1 -23 6 -33 9 -16 10 -15 5 7 -4 19 -1 17 14 -10 10 -19 34 -48 53 -65 25
-23 28 -24 12 -5 -42 49 -86 133 -111 210 -4 13 -4 13 6 0 9 -13 11 -13 11 0
0 8 17 -11 36 -43 20 -32 38 -56 40 -54 2 2 -14 36 -34 75 -21 40 -40 70 -43
68 -3 -3 -5 20 -6 52 l-1 56 19 -24 c10 -14 19 -29 19 -34 0 -6 -7 -1 -15 10
-8 10 -15 14 -15 7 0 -6 4 -14 10 -18 5 -3 6 -13 3 -22 -5 -12 -3 -14 7 -8 10
6 12 4 7 -9 -8 -20 10 -59 23 -51 11 6 32 -29 23 -38 -3 -4 0 -13 7 -22 7 -8
10 -24 7 -35 -3 -11 -1 -18 3 -15 5 3 30 -25 56 -62 109 -155 190 -243 207
-226 4 3 15 0 24 -8 15 -11 15 -10 -1 9 -11 13 -22 18 -26 12 -3 -5 -28 13
-55 40 -27 27 -46 52 -43 55 3 3 21 -12 40 -35 19 -22 39 -40 44 -40 4 0 -18
27 -51 60 -32 32 -62 57 -67 54 -4 -3 -8 0 -8 6 0 6 -22 38 -49 71 -51 63 -88
139 -68 139 6 0 1 10 -10 23 -20 21 -53 79 -53 92 0 3 4 3 10 0 6 -4 7 1 3 11
-5 13 -3 15 7 9 9 -5 11 -4 6 4 -4 6 -12 8 -18 5 -7 -5 -9 -1 -5 9 7 18 -11
69 -22 62 -7 -4 -3 96 4 104 3 2 5 -13 5 -35 0 -25 3 -34 9 -25 5 7 5 29 0 50
-11 46 -11 53 -1 47 5 -3 15 20 22 52 13 54 30 91 30 63 0 -7 4 -10 10 -6 5 3
7 12 4 19 -3 7 2 16 10 19 10 4 22 -6 37 -29 12 -19 23 -33 26 -30 2 2 -7 22
-22 44 -26 40 -26 43 -16 112 27 169 110 235 210 166 23 -16 41 -33 41 -37 0
-5 -17 -9 -37 -9 -40 0 -108 -34 -98 -49 3 -5 1 -11 -5 -13 -10 -3 -43 -148
-36 -156 3 -2 8 7 12 22 3 14 10 26 14 26 5 0 6 10 2 22 -3 12 -1 19 4 15 6
-3 8 9 6 29 -4 29 -1 34 17 34 13 0 21 6 21 18 0 11 3 13 8 6 5 -8 11 -7 22 4
8 9 13 19 10 22 -3 3 18 6 45 7 46 2 54 -1 98 -43 30 -27 43 -44 33 -44 -9 0
-16 -4 -16 -10 0 -5 -7 -10 -16 -10 -8 0 -12 5 -9 10 14 23 -17 8 -47 -22 -23
-24 -35 -48 -43 -91 -8 -38 -8 -60 -2 -64 6 -3 7 -1 3 5 -3 6 2 18 11 28 10
10 17 19 16 21 -8 9 -2 23 7 18 6 -3 10 -1 10 4 0 6 -6 11 -12 11 -10 0 -9 3
1 9 7 5 10 14 7 20 -5 7 3 11 21 12 17 1 21 3 11 6 -30 8 -21 26 10 20 15 -3
41 -1 59 5 26 9 36 8 55 -5 13 -10 39 -28 58 -41 59 -40 333 -324 282 -292 -7
4 -12 2 -12 -4 0 -6 7 -13 15 -16 8 -4 15 -16 14 -28 0 -20 -1 -20 -12 -3 -7
10 -18 26 -25 35 -12 15 -13 15 -7 -3 15 -45 14 -56 -7 -64 -21 -8 -21 -8 4
-14 23 -6 24 -10 19 -44 -7 -42 -4 -42 -117 -25 -33 5 -70 14 -82 21 -30 16
-41 13 -12 -4 16 -9 19 -14 9 -15 -23 0 -144 76 -144 91 -1 8 -6 13 -11 12
-12 -2 -7 45 6 62 11 13 16 82 8 91 -4 3 -10 -7 -14 -22 -4 -16 -9 -33 -13
-39 -3 -5 -6 -17 -6 -25 -4 -48 -6 -52 -19 -47 -11 4 -13 1 -9 -11 6 -15 4
-15 -15 2 -12 10 -20 21 -19 25 1 3 -1 6 -5 6 -4 0 -37 29 -74 65 -37 36 -64
57 -60 46 5 -14 3 -17 -10 -12 -14 5 -15 4 -4 -9 10 -12 9 -15 -6 -15 -18 -1
-18 -1 1 -12 11 -6 22 -14 25 -17 3 -4 40 -31 83 -61 64 -45 77 -59 74 -77 -2
-13 1 -27 8 -33 9 -8 12 -4 10 15 l-3 24 39 -19 c46 -24 56 -25 39 -5 -16 20
-1 19 28 -1 32 -22 134 -66 127 -54 -8 14 -2 13 31 -5 16 -8 45 -15 65 -15 31
0 38 -4 49 -31 16 -39 14 -99 -5 -169 -9 -30 -15 -89 -15 -130 0 -41 -6 -97
-15 -125 -18 -60 -18 -55 -2 -55 18 0 37 105 37 198 0 87 5 102 37 102 14 0
37 9 52 19 15 11 32 21 38 23 11 3 233 -249 233 -264 0 -4 -5 -10 -12 -14 -8
-5 -9 -2 -5 9 9 25 -9 21 -29 -5 -9 -13 -14 -16 -11 -8 3 8 8 24 12 35 5 13
-4 7 -24 -15 l-31 -35 14 38 c8 20 11 37 7 37 -11 0 -37 -40 -44 -65 -4 -18
-5 -18 -6 2 0 12 3 24 8 27 5 3 11 15 14 26 9 33 -13 11 -34 -34 -12 -26 -19
-34 -19 -21 0 11 7 33 15 49 18 33 19 44 4 29 -20 -20 -46 -4 -42 25 3 23 2
24 -6 7 -8 -17 -10 -15 -10 14 -1 31 -3 33 -31 29 -29 -4 -40 5 -20 17 17 10
11 21 -17 34 -22 10 -29 9 -44 -6 -26 -27 -34 -63 -14 -63 14 0 13 -4 -5 -30
-13 -19 -23 -52 -27 -95 l-6 -65 176 0 175 0 7 30 c7 32 25 51 25 26 0 -8 -4
-18 -10 -21 -12 -8 -13 -35 -1 -35 5 0 11 10 14 22 l6 22 24 -22 c21 -20 57
-30 57 -17 0 3 -11 18 -24 33 -13 15 -108 126 -211 247 -103 121 -191 222
-195 225 -4 3 -2 31 4 62 10 56 10 57 40 51 33 -7 45 -20 246 -248 282 -321
333 -375 358 -375 20 0 22 3 13 14 -9 11 -8 15 6 20 10 4 14 4 10 0 -4 -4 -2
-13 4 -20 8 -10 69 -13 251 -14 l241 -1 36 33 36 33 -29 -33 c-17 -17 -25 -32
-18 -32 6 0 14 5 17 10 5 8 11 8 20 0 10 -9 24 -5 57 16 37 23 40 24 24 5 -11
-11 -14 -21 -8 -21 6 0 14 5 17 10 4 6 10 8 15 5 4 -3 13 2 20 10 7 8 17 15
23 15 5 0 2 -9 -8 -20 -18 -20 -18 -21 1 -14 10 4 25 12 33 18 12 9 13 8 8 -6
-8 -22 2 -23 28 -4 11 8 25 12 31 9 7 -3 34 8 59 24 26 15 63 38 83 50 21 13
51 30 67 38 17 9 48 28 70 43 l40 28 3 249 c3 238 2 251 -17 262 -16 10 -18 9
-14 -8 3 -10 0 -19 -6 -19 -6 0 -11 -7 -11 -15 0 -8 -4 -15 -10 -15 -5 0 -10
-6 -10 -14 0 -8 -5 -16 -11 -18 -7 -2 -7 -12 1 -32 12 -32 5 -105 -12 -121 -8
-7 -8 -6 -3 4 5 9 4 12 -3 8 -5 -4 -8 -17 -5 -30 4 -17 2 -19 -5 -8 -8 11 -13
4 -22 -30 -14 -53 -46 -126 -59 -134 -5 -3 -4 7 4 22 7 16 16 39 20 53 l6 25
-18 -22 c-10 -12 -25 -31 -33 -41 -8 -10 -11 -12 -6 -5 5 8 6 17 2 21 -4 4
-11 0 -16 -9 -5 -9 -19 -27 -30 -40 l-21 -24 17 28 c21 35 8 51 -15 17 -9 -14
-33 -43 -54 -65 -36 -37 -37 -38 -23 -10 8 17 33 48 55 69 35 35 40 45 39 83
0 23 -5 43 -10 43 -5 0 -6 5 -2 12 4 7 3 8 -4 4 -7 -4 -12 -14 -12 -22 0 -8
-4 -14 -10 -14 -5 0 -10 -11 -10 -24 0 -18 -10 -29 -41 -45 -23 -12 -44 -20
-47 -17 -3 3 -11 1 -19 -6 -11 -8 -12 -7 -7 6 9 22 -12 20 -48 -5 l-30 -22 13
22 c8 11 17 21 21 21 5 0 8 5 8 10 0 16 -58 -18 -64 -37 -3 -10 -4 -6 -2 9 2
16 -3 33 -11 39 -10 9 -12 9 -8 -3 3 -8 0 -34 -8 -57 -17 -47 -8 -60 18 -31
18 20 51 28 40 10 -10 -16 22 -12 39 5 8 8 18 15 23 15 4 -1 -7 -13 -24 -28
l-33 -28 31 2 31 2 -38 -39 c-21 -21 -40 -39 -43 -39 -3 0 0 5 7 12 17 17 15
33 -3 18 -13 -11 -14 -10 -9 5 8 21 0 17 -53 -23 -39 -29 -43 -22 -8 15 34 38
23 41 -22 7 -21 -15 -32 -20 -24 -11 18 23 7 34 -16 16 -14 -12 -16 -12 -8 0
6 11 4 13 -8 8 -11 -4 -17 -1 -17 8 0 8 -7 15 -15 15 -8 0 -15 5 -15 11 0 8
-5 8 -15 -1 -8 -7 -15 -9 -15 -4 0 4 -5 3 -12 -4 -7 -7 -19 -12 -27 -12 -11 0
-10 4 4 20 10 11 13 20 8 20 -6 0 -16 -7 -24 -16 -7 -8 -21 -13 -30 -11 -10 3
-17 0 -16 -5 1 -6 -4 -13 -12 -16 -10 -3 -11 0 -5 9 7 12 5 12 -9 0 -9 -7 -14
-18 -10 -25 3 -6 2 -8 -2 -3 -5 4 -19 -3 -32 -15 -36 -33 -27 -13 13 32 20 22
45 40 55 40 11 0 19 4 19 10 0 10 -27 3 -47 -12 -7 -6 -18 -6 -24 -2 -7 4 -9
3 -6 -3 3 -5 0 -10 -8 -10 -20 0 -19 3 6 26 12 11 38 22 58 25 20 4 53 9 74
12 22 3 58 12 80 21 23 8 49 16 57 18 8 2 29 9 45 16 17 7 35 14 40 15 6 1 12
3 15 4 3 1 16 3 30 6 40 7 52 13 45 24 -4 6 8 10 29 10 35 0 49 14 24 23 -7 2
5 7 26 11 29 6 36 10 25 17 -10 6 -4 9 21 9 33 1 34 2 16 15 -19 14 -19 15 0
20 10 4 27 11 36 16 10 5 24 9 33 9 9 0 12 6 9 15 -4 10 0 15 15 15 25 0 29
20 4 21 -10 0 2 8 27 16 37 13 41 17 25 23 -11 4 -24 5 -29 2 -5 -3 -6 0 -3 5
10 16 54 22 68 9 9 -8 10 -8 5 2 -4 6 -3 12 1 12 5 0 15 -6 23 -12 12 -11 12
-10 2 4 -7 9 -25 19 -40 23 l-27 7 30 13 c19 9 24 14 13 14 -10 1 -18 8 -18
17 0 10 5 14 16 10 8 -3 12 -2 9 4 -3 6 -1 10 4 10 6 0 11 -4 11 -10 0 -5 4
-10 10 -10 5 0 7 7 3 16 -3 9 0 20 8 25 10 6 10 9 2 9 -20 0 -15 20 5 21 11 1
8 4 -8 8 l-25 7 25 9 c19 6 27 3 38 -14 8 -11 18 -21 23 -21 14 0 11 84 -3 99
-10 11 -10 13 0 7 12 -7 17 6 6 17 -8 8 -35 -3 -29 -13 3 -4 -9 -13 -27 -19
l-31 -11 19 21 c13 16 15 23 7 26 -9 3 -9 10 3 28 12 18 12 24 2 27 -11 4 -10
8 1 21 8 11 9 17 2 17 -6 0 -2 14 9 33 24 39 25 51 4 43 -12 -4 -10 1 5 23 15
21 18 30 9 34 -10 3 -10 7 0 19 10 13 10 17 0 21 -9 3 -6 10 11 22 21 16 21
19 7 27 -9 5 -22 6 -29 2 -8 -5 -7 -2 2 9 11 13 17 15 28 6 11 -10 13 -6 11
22 -2 19 -7 37 -13 41 -6 5 -5 8 3 8 7 0 12 15 12 41 0 29 -3 38 -12 33 -10
-6 -10 -5 -1 7 7 8 12 38 11 66 0 51 0 52 -25 42 -23 -8 -24 -8 -13 6 29 35
-11 11 -54 -33 -35 -34 -44 -40 -36 -22 6 14 28 37 48 51 42 29 76 44 67 29
-3 -6 -1 -10 4 -10 7 0 11 26 11 65 0 58 -3 66 -25 81 -17 11 -29 13 -38 7 -6
-6 -37 -13 -67 -16 l-56 -5 -11 36 c-10 31 -9 40 4 54 10 11 12 18 5 18 -18 0
-14 16 12 47 19 22 21 31 12 45 -8 15 -8 21 3 28 12 7 13 11 1 25 -11 13 -9
20 15 45 16 17 36 30 44 30 10 1 5 7 -11 16 -35 19 -35 26 3 58 l30 26 -26 10
-26 10 19 28 c11 15 29 36 41 46 25 22 27 36 6 36 -18 0 -19 12 -3 28 9 9 8
12 -5 12 -22 0 -21 12 2 41 10 13 26 39 36 58 15 30 15 33 1 28 -9 -4 -26 -3
-38 2 l-21 8 23 16 23 16 -27 7 c-14 3 -26 8 -26 11 0 3 18 27 41 54 44 52 43
53 -25 63 -56 8 -56 3 -18 106 4 10 0 9 -13 -4 -26 -25 -28 -11 -11 61 l14 61
-36 -24 c-44 -30 -77 -33 -62 -5 16 30 14 31 -49 31 -44 0 -65 -5 -85 -21
l-26 -20 0 20 c0 26 -18 27 -37 4 -14 -17 -14 -17 -9 0 5 14 -1 17 -37 17 -23
0 -47 -4 -52 -8 -19 -13 -45 -61 -45 -83 0 -32 -13 -15 -26 34 -11 41 -11 41
-19 15 -4 -16 -11 -28 -17 -28 -8 0 -5 18 9 58 4 8 -7 12 -35 12 -37 0 -41 -3
-44 -27 l-4 -28 -14 28 c-13 26 -16 27 -97 27 -81 0 -83 0 -83 -24 0 -14 -5
-28 -12 -32 -8 -5 -9 2 -5 23 5 27 3 31 -18 31 -16 0 -25 -6 -25 -17 -1 -14
-2 -14 -14 2 -10 13 -28 17 -74 17 -54 0 -61 -2 -56 -17 5 -17 5 -17 -9 0 -16
20 -47 23 -47 5 0 -7 5 -30 11 -52 8 -27 8 -41 0 -49 -8 -8 -11 0 -11 29 0 22
-7 50 -16 62 -13 19 -24 22 -83 22 -60 0 -71 -3 -84 -22 l-16 -23 0 23 c-1 19
-6 22 -45 22 l-45 0 30 -82 c27 -72 28 -80 11 -65 -16 14 -21 15 -26 5 -4 -9
-5 -9 -4 2 1 8 -1 26 -5 40 -3 14 -9 42 -12 63 -5 31 -10 37 -30 37 -27 0 -30
-9 -16 -58 11 -35 3 -108 -9 -95 -5 4 -10 24 -13 44 -2 20 -8 42 -11 48 -4 6
-2 11 4 11 6 0 10 10 8 23 -2 17 -11 23 -37 25 -31 3 -33 2 -26 -20 26 -85 8
-115 -20 -32 -14 41 -23 54 -38 54 -18 0 -19 -5 -13 -46 3 -28 2 -43 -4 -39
-6 3 -10 24 -10 46 0 35 -3 39 -25 39 -23 0 -24 -2 -15 -20 6 -11 16 -20 22
-20 6 0 9 -3 5 -6 -3 -4 -20 5 -37 19 -29 25 -36 26 -148 26 -64 -1 -111 -3
-104 -6 6 -2 12 -17 11 -31 0 -27 0 -27 -16 6 -13 25 -23 32 -45 32 -15 0 -28
-2 -28 -4z m1050 -113 c0 -17 -4 -35 -10 -38 -6 -4 -10 11 -10 38 0 25 -2 60
-5 78 -6 33 -6 33 9 -6 9 -22 16 -54 16 -72z m20 72 c0 -5 -5 -3 -10 5 -5 8
-10 20 -10 25 0 6 5 3 10 -5 5 -8 10 -19 10 -25z m214 -50 c-3 -22 -11 -51
-16 -65 l-10 -25 -12 28 c-10 23 -9 38 8 89 17 54 21 58 28 37 5 -13 6 -42 2
-64z m-1043 33 c12 -24 32 -57 44 -74 23 -30 23 -30 3 -43 -24 -15 -21 -18
-41 49 -11 38 -16 47 -17 30 l-2 -25 -8 25 c-9 28 -12 80 -5 80 2 0 14 -19 26
-42z m336 10 c-3 -8 -6 -5 -6 6 -1 11 2 17 5 13 3 -3 4 -12 1 -19z m663 -23
c-6 -15 -13 -25 -16 -23 -2 3 1 17 7 32 16 34 23 27 9 -9z m502 17 c-12 -10
-34 -40 -47 -67 l-24 -50 -1 47 c0 41 3 48 33 66 41 26 71 29 39 4z m-1155
-49 c-3 -10 -5 -4 -5 12 0 17 2 24 5 18 2 -7 2 -21 0 -30z m620 15 c-3 -8 -6
-5 -6 6 -1 11 2 17 5 13 3 -3 4 -12 1 -19z m199 -46 c-9 -17 -34 -46 -58 -66
-23 -20 -38 -36 -33 -36 19 0 88 56 111 89 17 25 24 30 24 17 0 -39 -76 -156
-102 -156 -6 0 -3 9 7 20 23 26 14 25 -38 -2 -23 -12 -46 -21 -51 -20 -5 2
-23 -2 -40 -7 -25 -9 -28 -8 -15 2 9 6 14 17 12 24 -5 13 16 57 23 50 3 -2 0
-16 -5 -31 -9 -21 -8 -26 5 -26 8 0 13 4 10 9 -4 5 8 20 25 33 65 49 119 101
125 120 3 11 8 17 11 15 2 -3 -2 -19 -11 -35z m234 24 c0 -7 -11 -30 -25 -50
-14 -21 -23 -41 -20 -45 2 -5 -6 -18 -19 -30 l-24 -22 -4 39 c-2 22 0 38 3 36
11 -6 67 44 74 66 7 23 15 26 15 6z m215 -18 c-8 -26 -46 -70 -53 -63 -3 3 3
14 13 25 14 16 15 20 4 20 -8 0 -20 -5 -27 -12 -8 -8 -12 -9 -12 -1 0 11 56
50 73 52 5 1 5 -9 2 -21z m-676 -67 c-15 -5 -128 -107 -151 -137 -14 -17 -14
-21 -2 -21 8 0 30 20 50 44 55 67 59 51 6 -22 -26 -36 -47 -69 -47 -74 0 -5
-22 -28 -48 -51 -26 -23 -56 -59 -67 -79 -10 -20 -19 -30 -20 -23 0 7 9 30 20
52 26 50 26 64 0 25 -11 -16 -20 -25 -20 -18 0 6 20 41 44 77 24 37 39 63 33
60 -7 -3 18 24 54 60 36 36 64 67 62 69 -2 2 5 10 14 18 17 13 17 13 3 -5 -13
-17 -13 -19 0 -14 8 2 28 30 45 61 l30 56 3 -37 c2 -23 -1 -38 -9 -41z m-304
19 c-27 -27 -54 -49 -60 -49 -5 0 15 22 45 49 71 64 79 64 15 0z m-455 -62
c40 -69 60 -95 60 -80 0 13 -5 32 -10 43 -6 10 -8 19 -5 19 16 0 84 -245 71
-257 -7 -7 -36 47 -51 98 -24 78 -26 80 -20 21 6 -59 -4 -62 -26 -10 -7 18
-16 35 -20 38 -8 6 -29 93 -33 135 -1 17 -10 45 -19 63 -10 17 -15 32 -12 32
2 0 32 -46 65 -102z m-217 0 c9 -31 -7 -19 -33 25 -36 60 -36 67 -1 27 16 -19
32 -43 34 -52z m586 18 c-9 -8 -10 -5 -5 14 3 14 6 32 7 40 1 8 4 2 6 -14 3
-16 -1 -34 -8 -40z m-684 28 l30 -26 -35 23 c-45 29 -45 29 -34 29 5 0 23 -12
39 -26z m641 -26 c-4 -36 -3 -47 3 -33 21 44 10 -30 -14 -105 l-25 -75 5 75
c5 76 24 190 32 190 3 0 2 -24 -1 -52z m-413 15 c22 -44 31 -77 18 -69 -6 4
-11 15 -11 26 0 30 -29 33 -36 4 -7 -28 0 -137 11 -169 4 -14 1 -12 -9 5 -19
30 -21 136 -4 191 6 22 13 39 14 39 2 0 10 -12 17 -27z m265 2 c-3 -3 -9 2
-12 12 -6 14 -5 15 5 6 7 -7 10 -15 7 -18z m367 -27 c-55 -62 -95 -136 -124
-235 -12 -40 -26 -75 -31 -78 -15 -9 -12 13 10 85 l20 65 -25 -30 -24 -30 12
35 c18 53 70 122 138 184 35 31 64 56 67 56 2 0 -17 -23 -43 -52z m709 -20
c-3 -4 -13 -12 -24 -18 -17 -9 -17 -8 -2 41 l17 52 7 -34 c3 -18 4 -37 2 -41z
m-1560 21 c26 -23 56 -60 67 -83 l21 -41 -48 51 c-109 114 -129 151 -40 73z
m786 35 c0 -3 -15 -24 -33 -47 -19 -23 -44 -69 -57 -102 -37 -99 -41 -104 -34
-55 8 58 35 121 75 171 27 35 49 49 49 33z m-262 -65 c19 -32 25 -62 29 -135
9 -142 -14 -118 -41 43 -8 49 -18 98 -22 111 -10 36 9 25 34 -19z m841 6 c-25
-42 -81 -88 -128 -103 -19 -7 -36 -11 -38 -9 -2 3 173 142 184 146 1 1 -7 -15
-18 -34z m121 -27 c-7 -14 -25 -33 -42 -42 -40 -24 -30 -29 23 -11 39 13 42
13 25 0 -11 -8 -24 -15 -30 -15 -5 0 -7 -3 -4 -6 3 -3 23 2 44 10 l39 16 -25
-20 c-44 -35 -3 -21 44 15 31 24 46 30 46 20 0 -8 -23 -33 -51 -55 -48 -38
-77 -52 -64 -30 3 6 -6 15 -22 21 -77 28 -82 32 -69 51 13 18 89 77 94 73 1
-1 -2 -14 -8 -27z m198 7 c-12 -27 -28 -34 -28 -12 0 14 20 37 32 37 4 0 2
-11 -4 -25z m-646 -37 c-7 -7 -12 -8 -12 -2 0 6 3 14 7 17 3 4 9 5 12 2 2 -3
-1 -11 -7 -17z m-752 -55 c30 -81 19 -90 -13 -10 -30 74 -31 81 -18 72 5 -3
19 -31 31 -62z m1416 58 c-4 -5 -1 -11 6 -13 10 -4 10 -11 -1 -34 -8 -17 -16
-24 -18 -16 -3 9 -9 10 -17 3 -9 -7 -12 -3 -11 15 0 14 9 32 19 40 23 16 30
18 22 5z m-1427 -125 c-1 -19 -49 88 -48 109 0 11 11 -7 24 -39 14 -33 25 -64
24 -70z m846 114 c-11 -4 -59 -42 -107 -85 -49 -42 -88 -73 -88 -68 0 5 5 14
12 21 19 19 -3 14 -26 -5 -12 -10 -9 -4 7 13 15 17 25 33 22 36 -7 6 19 29 37
32 7 1 24 8 38 16 59 33 96 49 110 49 9 0 8 -3 -5 -9z m105 -4 c0 -2 -7 -7
-16 -10 -8 -3 -12 -2 -9 4 6 10 25 14 25 6z m-711 -156 c28 -77 31 -93 15 -80
-8 7 -23 31 -34 54 -11 22 -27 52 -35 66 -8 14 -15 36 -15 49 0 23 2 21 28
-15 15 -21 33 -55 41 -74z m645 50 c-32 -22 -69 -46 -80 -55 -19 -14 -22 -14
-27 0 -4 9 -1 15 7 15 7 0 19 7 27 16 15 18 98 63 118 64 8 0 -12 -18 -45 -40z
m-1124 26 c0 -2 -8 -10 -17 -17 -16 -13 -17 -12 -4 4 13 16 21 21 21 13z
m1373 -16 c-13 -5 -40 -11 -60 -14 -38 -5 -131 -34 -175 -56 -22 -11 -22 -11
-3 5 55 45 137 72 220 73 33 1 36 -1 18 -8z m-1483 -65 c-1 -11 -27 20 -41 50
-6 11 1 7 15 -10 14 -16 26 -34 26 -40z m1530 55 c-8 -5 -22 -9 -30 -9 -10 0
-8 3 5 9 27 12 43 12 25 0z m36 -13 c-10 -7 -42 -27 -69 -45 -28 -18 -65 -35
-81 -38 -31 -4 -31 -4 4 10 19 8 31 15 25 16 -5 1 22 17 60 35 72 35 95 43 61
22z m-1517 -31 c-8 -6 -15 -18 -17 -25 -2 -8 -11 -21 -20 -29 -9 -7 -11 -11
-5 -7 8 4 11 1 7 -9 -8 -22 -34 -29 -34 -8 1 22 23 52 41 53 9 0 10 2 2 5 -8
4 -7 11 5 23 9 10 21 16 26 13 5 -3 3 -10 -5 -16z m361 -16 c6 -11 8 -20 6
-20 -3 0 -10 9 -16 20 -6 11 -8 20 -6 20 3 0 10 -9 16 -20z m-176 -13 c-11 -5
-30 -19 -43 -31 l-24 -21 18 28 c20 31 45 48 59 40 5 -3 0 -10 -10 -16z m1545
1 c-12 -23 -12 -23 9 -5 20 18 20 18 18 0 -2 -10 -11 -20 -22 -22 -10 -2 -38
-21 -62 -43 -52 -47 -155 -98 -215 -105 -32 -4 -39 -2 -27 7 11 8 1 10 -45 5
l-60 -5 70 23 c39 13 90 26 115 30 44 5 44 5 18 -9 -38 -20 -35 -24 9 -12 43
12 100 47 128 78 l20 23 -22 -14 c-30 -18 -39 -6 -16 25 20 27 48 44 76 45 15
1 16 -2 6 -21z m-1655 -3 c-10 -8 -23 -14 -29 -14 -5 0 -1 6 9 14 11 8 24 15
30 15 5 0 1 -7 -10 -15z m1086 -9 c0 -2 -8 -10 -17 -17 -16 -13 -17 -12 -4 4
13 16 21 21 21 13z m266 -18 c-22 -12 -91 -30 -81 -20 8 9 67 29 85 31 10 0 9
-3 -4 -11z m129 -6 c-56 -34 -92 -44 -127 -37 l-33 8 25 11 c14 6 30 15 36 21
6 6 38 12 70 13 l59 2 -30 -18z m-1505 -2 c-20 -13 -33 -13 -25 0 3 6 14 10
23 10 15 0 15 -2 2 -10z m1070 -16 c0 -11 4 -12 19 -4 11 5 26 10 33 9 10 0
10 -2 1 -6 -16 -6 -17 -33 -2 -33 5 0 7 -4 4 -10 -3 -5 -11 -10 -16 -10 -6 0
-7 4 -4 10 3 6 -1 7 -10 3 -24 -8 4 -25 29 -17 10 4 16 2 13 -3 -3 -5 4 -9 16
-9 15 1 21 -4 19 -15 -2 -13 4 -15 24 -11 26 5 26 4 8 -17 -19 -22 -30 -28
-19 -11 11 18 -11 10 -30 -10 -10 -11 -13 -20 -7 -20 6 0 9 -8 6 -17 -4 -12
-3 -14 3 -6 7 10 63 14 63 4 0 -2 -8 -10 -17 -18 -16 -13 -16 -13 7 -7 23 6
24 6 10 -11 -13 -17 -13 -18 2 -13 14 6 15 4 3 -19 -8 -14 -20 -30 -27 -35
-11 -6 -11 -10 1 -17 7 -5 10 -14 7 -20 -5 -7 1 -11 14 -11 18 0 19 -2 8 -14
-8 -7 -27 -20 -43 -29 l-30 -16 27 -1 c21 0 25 -4 21 -19 -4 -15 2 -21 29 -26
27 -7 30 -9 14 -15 -18 -6 -18 -7 -2 -13 10 -4 26 -7 36 -7 11 0 31 -10 45
-23 24 -20 27 -31 30 -100 3 -75 2 -79 -31 -125 l-35 -47 32 35 c18 19 38 35
44 35 5 1 9 7 7 15 -2 10 0 11 11 2 17 -15 27 -4 47 48 25 65 167 220 202 220
24 0 29 -23 26 -154 -2 -131 -4 -137 -82 -206 -22 -19 -46 -44 -55 -54 -59
-70 -73 -84 -105 -101 -30 -16 -40 -18 -56 -7 -23 14 -33 16 -26 3 4 -5 3 -11
-1 -13 -11 -4 -74 -160 -68 -166 3 -4 24 39 63 132 5 13 20 19 50 21 45 4 45
3 4 -55 -9 -13 -11 -21 -4 -16 17 10 15 -2 -6 -32 -27 -39 -34 -52 -27 -52 3
0 15 15 26 33 16 24 20 27 16 10 -3 -13 -1 -26 4 -29 5 -3 9 6 9 19 0 52 46
154 92 206 25 28 49 51 52 51 12 0 37 -63 33 -81 -3 -11 -2 -17 3 -14 4 2 10
24 14 47 7 42 7 42 20 16 7 -13 19 -56 26 -94 15 -89 26 -134 36 -158 5 -13 4
-17 -3 -13 -7 5 -9 0 -6 -13 5 -19 6 -20 19 -3 13 16 13 15 5 -7 -5 -14 -14
-24 -20 -23 -6 2 -8 -4 -5 -11 4 -10 0 -14 -13 -12 -13 3 -17 10 -15 32 3 27
2 27 -52 -24 -31 -29 -79 -64 -108 -78 l-53 -24 40 2 c22 1 45 5 51 10 7 5 16
8 20 7 5 -1 17 1 27 5 32 14 64 -1 71 -34 6 -34 33 -50 47 -29 13 21 11 32 -6
25 -9 -3 -19 3 -26 17 -9 18 -9 20 2 10 17 -16 37 -17 21 -1 -9 9 -6 19 11 42
34 46 39 56 27 56 -6 0 -14 -8 -17 -17 -4 -10 -16 -27 -26 -38 -18 -18 -18
-17 2 22 11 23 26 45 32 49 15 9 30 -17 23 -40 -4 -11 -2 -16 4 -12 17 11 20
-28 3 -48 -15 -18 -15 -19 0 -13 13 4 17 -1 17 -21 0 -15 -4 -31 -8 -37 -4 -5
-10 -22 -14 -37 -3 -14 -21 -47 -40 -72 -19 -24 -30 -46 -25 -48 6 -2 0 -12
-12 -23 -14 -12 -19 -14 -14 -5 4 8 -5 3 -22 -12 -16 -16 -34 -28 -41 -28 -6
0 -36 -20 -67 -45 -30 -25 -64 -46 -75 -48 -11 -2 -23 -7 -27 -12 -5 -4 -2 -5
5 -1 6 4 12 2 12 -3 0 -6 -6 -11 -14 -11 -7 0 -19 -7 -26 -15 -7 -8 -16 -13
-20 -10 -5 3 -10 0 -12 -7 -3 -8 -9 -8 -24 0 -18 10 -17 11 9 21 16 6 33 11
38 11 6 0 7 5 3 11 -4 8 -9 8 -17 0 -17 -17 -31 -13 -16 5 7 8 20 13 30 11 12
-3 16 0 12 9 -5 13 -9 13 -27 1 -28 -18 -66 -27 -66 -16 0 5 8 9 18 9 20 0 42
18 42 34 0 6 -4 5 -9 -3 -10 -15 -61 -24 -61 -10 0 5 9 9 19 9 11 0 23 5 26
10 4 7 -3 9 -21 6 -41 -8 -45 -24 -19 -83 27 -60 28 -59 -57 -89 -39 -13 -40
-13 -35 6 3 13 0 20 -9 20 -9 0 -14 -11 -14 -29 0 -24 -7 -32 -42 -50 -26 -13
-44 -17 -48 -10 -4 6 -24 7 -49 3 -24 -4 -37 -10 -31 -14 8 -5 6 -9 -6 -14
-16 -6 -16 -9 -4 -17 12 -9 12 -10 -3 -5 -10 3 -23 6 -28 6 -6 0 -7 6 -3 13 4
7 3 9 -2 4 -5 -5 -9 -14 -9 -20 0 -6 -16 -19 -35 -30 l-35 -19 24 21 c26 24
12 28 -22 7 -12 -8 -40 -17 -62 -21 -37 -6 -39 -5 -20 9 11 8 27 16 35 16 21
1 59 30 39 30 -8 0 -20 -5 -26 -11 -6 -6 -19 -9 -29 -6 -17 4 -17 5 1 6 11 1
31 10 45 21 l25 20 -29 -10 c-19 -7 -40 -7 -65 0 -48 13 -51 13 -45 -5 4 -9 0
-15 -10 -15 -9 0 -16 -4 -16 -10 0 -5 -7 -10 -16 -10 -8 0 -13 -4 -10 -8 2 -4
1 -14 -5 -22 -6 -11 -9 -11 -9 -2 0 8 -8 10 -24 6 -35 -8 -59 8 -26 17 18 5
10 7 -30 9 -65 2 -89 6 -98 16 -4 4 9 4 29 1 32 -5 41 -1 65 25 16 16 67 61
114 99 47 38 98 84 113 104 36 45 52 45 26 0 -11 -19 -18 -39 -14 -45 3 -5 2
-10 -4 -10 -6 0 -15 -9 -21 -20 -9 -17 -8 -20 10 -20 11 0 19 6 18 12 -2 7 8
14 22 17 23 3 23 4 5 11 l-20 8 20 7 c29 10 63 27 43 21 -10 -3 -20 -1 -23 4
-4 6 1 10 10 10 9 0 14 4 10 9 -3 5 -1 12 5 16 6 4 7 11 4 17 -4 6 2 8 17 3
13 -3 20 -3 14 2 -16 13 -16 33 -1 39 8 3 13 11 10 18 -3 7 7 18 21 24 14 6
25 17 25 23 0 8 -5 7 -17 -2 -10 -7 -6 0 10 17 15 17 25 33 22 36 -4 3 8 16
26 29 40 28 99 91 119 128 9 15 30 45 47 66 18 21 30 41 27 44 -2 3 -18 -12
-35 -32 -17 -21 -35 -35 -40 -31 -5 3 -2 12 6 20 8 9 13 20 10 25 -4 5 -1 9 4
9 6 0 11 8 11 18 0 14 -2 15 -10 2 -5 -8 -10 -10 -10 -3 0 6 18 34 40 62 22
28 38 51 36 51 -5 0 -66 -29 -107 -50 -81 -42 -119 -62 -119 -64 0 -2 85 1 90
3 20 10 40 7 40 -5 0 -8 -4 -14 -10 -14 -5 0 -8 -6 -6 -12 11 -35 15 -82 7
-69 -8 12 -12 10 -21 -11 -12 -25 -103 -102 -260 -220 -41 -31 -97 -77 -125
-103 -27 -26 -74 -58 -104 -72 -60 -29 -164 -41 -221 -26 -35 9 -35 10 -34 64
0 30 4 75 9 102 4 27 4 47 -1 47 -10 0 -44 -176 -44 -226 0 -16 -7 -39 -15
-50 -15 -18 -16 -18 -50 21 -22 26 -33 47 -30 60 3 11 2 14 -1 7 -8 -17 -24
-5 -24 19 0 14 7 19 29 19 16 0 35 7 42 17 13 15 12 15 -8 5 -33 -18 -36 -15
-14 14 12 15 21 31 21 37 0 6 -6 2 -14 -8 -8 -11 -19 -16 -30 -12 -9 4 -15 3
-12 -2 9 -14 -39 -33 -74 -29 -30 3 -33 6 -37 41 -3 28 0 37 8 31 8 -4 9 -3 5
5 -4 6 -11 9 -15 7 -9 -6 -111 108 -111 122 0 6 -3 12 -7 15 -5 2 -3 2 4 1 7
-2 15 1 18 6 9 15 244 1 287 -17 22 -9 41 -26 48 -44 8 -17 17 -26 26 -22 8 3
14 -1 14 -11 0 -9 4 -16 9 -16 5 0 24 -3 42 -6 26 -4 30 -3 19 5 -13 10 -13
11 0 11 8 0 26 3 40 6 20 4 22 3 10 -5 -8 -6 -12 -11 -8 -11 6 0 75 43 84 53
1 1 -30 2 -69 3 -107 1 -153 12 -166 40 -9 20 -18 24 -51 24 l-40 0 0 45 c0
26 -7 60 -16 76 l-15 30 30 -15 c16 -9 36 -16 43 -16 33 0 148 54 174 82 23
24 25 28 7 17 -13 -8 -23 -18 -23 -22 0 -5 -20 -5 -44 -2 -28 5 -52 2 -67 -6
-13 -7 -42 -16 -64 -20 -35 -7 -43 -4 -67 19 -32 29 -35 59 -12 104 12 24 13
32 4 38 -9 5 -6 10 10 15 12 4 19 10 14 14 -12 8 -17 34 -6 27 15 -9 49 94 67
208 12 71 21 103 27 94 6 -8 7 -4 3 12 -4 14 -13 31 -20 39 -11 11 -11 21 2
55 10 29 13 60 8 109 -3 37 -4 67 -1 67 2 0 12 -25 20 -54 9 -30 20 -58 25
-61 6 -3 6 8 0 27 -14 50 -11 101 10 154 11 27 30 76 43 108 12 33 24 52 26
43 2 -9 -1 -24 -7 -34 -6 -12 -6 -36 0 -66 15 -81 14 -196 -3 -222 -3 -6 -5
-34 -4 -63 2 -28 0 -52 -5 -52 -13 0 -17 31 -15 103 3 83 -13 66 -21 -22 -5
-53 -3 -59 27 -93 18 -21 37 -35 42 -32 17 11 7 -9 -14 -27 -23 -19 -23 -19
12 -2 32 16 37 16 92 -4 40 -15 58 -18 61 -10 3 7 23 -5 48 -28 24 -22 34 -28
21 -14 -27 31 -27 34 -2 36 11 1 18 -2 15 -6 -5 -9 15 -18 117 -52 96 -31 145
-18 191 53 9 15 17 32 17 38 0 6 7 19 16 28 11 11 13 17 5 20 -6 2 -16 12 -21
22 -8 15 -6 17 12 12 12 -3 19 -1 16 4 -4 5 14 10 40 12 45 3 116 31 79 32 -9
0 -25 4 -35 8 -123 60 -119 59 -162 37 -37 -19 -201 -38 -214 -25 -7 7 -5 10
3 10 8 0 20 8 27 18 27 35 13 33 -27 -3 -32 -29 -47 -36 -68 -32 -29 6 -88
-11 -110 -31 -7 -7 -26 -16 -42 -19 -25 -5 -27 -8 -18 -27 7 -14 1 -11 -16 9
-22 26 -25 27 -22 9 1 -12 11 -33 20 -48 10 -14 13 -26 8 -26 -13 0 -51 49
-51 66 0 7 27 55 60 105 33 50 60 96 60 103 0 6 10 31 22 56 12 25 22 47 22
50 1 3 7 19 13 35 7 17 17 57 24 90 l12 60 10 -38 c8 -31 6 -42 -9 -60 -13
-14 -14 -18 -3 -9 14 11 16 5 18 -53 2 -88 -12 -136 -49 -163 -16 -12 -34 -32
-40 -45 -8 -16 -2 -12 20 11 29 31 56 39 33 10 -6 -7 -13 -23 -16 -36 -5 -20
0 -19 37 15 23 21 41 40 39 42 -1 2 5 10 15 18 16 14 16 14 -2 9 -15 -5 -17
-3 -11 11 5 10 18 45 29 78 l21 60 7 -45 c4 -25 9 -55 12 -66 2 -13 -6 -36
-20 -58 -37 -54 -21 -43 22 15 36 50 90 176 79 187 -3 3 -5 -1 -6 -9 0 -8 -4
-4 -9 8 -10 24 -2 90 11 99 5 3 9 -16 9 -42 0 -71 11 -45 19 42 7 87 24 107
40 47 21 -75 2 -261 -31 -301 -11 -13 -10 -14 2 -10 39 13 116 214 121 320 1
19 3 18 9 -7 11 -44 11 -125 0 -164 -11 -41 -5 -55 9 -19 15 41 28 197 16 202
-5 2 3 9 19 15 16 6 26 14 23 17 -3 3 -14 1 -25 -5 -24 -13 -36 -3 -19 17 9
13 9 14 0 8 -13 -7 -18 6 -7 17 10 9 24 -2 24 -19z m-982 -89 c-37 -77 -40
-91 -39 -160 1 -41 -3 -75 -7 -75 -5 0 -17 9 -27 20 -10 11 -22 17 -28 13 -6
-3 -7 -1 -3 5 4 7 3 12 -2 12 -5 0 -14 11 -20 25 -10 21 -9 23 5 18 12 -5 15
-2 10 10 -3 9 -2 19 4 22 5 4 7 11 4 16 -4 5 2 9 12 9 10 0 14 4 8 8 -17 12
-16 32 1 25 13 -5 15 -2 10 14 -3 11 1 27 9 39 15 18 16 17 10 -14 -12 -57
-13 -82 -4 -76 5 3 9 13 9 22 1 36 67 152 86 152 2 0 -15 -38 -38 -85z m207
-2 c-25 -38 -50 -74 -56 -81 -5 -7 -7 -17 -3 -24 4 -7 3 -8 -4 -4 -7 4 -12 1
-13 -6 0 -9 -2 -9 -5 -1 -8 19 35 95 79 141 23 23 42 42 44 42 2 0 -17 -30
-42 -67z m679 -50 c3 -48 2 -74 -1 -58 -6 28 -6 29 -12 7 -3 -13 -6 20 -6 72
0 115 14 101 19 -21z m-404 93 c0 -2 -8 -10 -17 -17 -16 -13 -17 -12 -4 4 13
16 21 21 21 13z m-620 -16 c0 -5 -5 -10 -11 -10 -5 0 -7 5 -4 10 3 6 8 10 11
10 2 0 4 -4 4 -10z m476 -18 c-17 -16 -18 -16 -5 5 7 12 15 20 18 17 3 -2 -3
-12 -13 -22z m1249 -19 c-22 -19 -41 -29 -43 -24 -2 6 -11 11 -20 12 -11 0
-12 2 -4 6 6 2 10 9 7 13 -3 5 0 12 6 16 8 4 9 3 5 -4 -10 -17 3 -14 44 8 50
26 52 14 5 -27z m-915 -18 l2 30 9 -30 c8 -29 0 -123 -9 -96 -3 10 -9 7 -18
-10 -12 -21 -13 -14 -13 66 1 88 1 89 14 50 13 -39 14 -39 15 -10z m-820 25
c0 -5 -5 -10 -11 -10 -5 0 -7 5 -4 10 3 6 8 10 11 10 2 0 4 -4 4 -10z m180
-35 c-12 -20 -24 -34 -27 -31 -2 2 6 20 19 39 30 46 37 39 8 -8z m259 -35
c-18 -32 -35 -57 -37 -55 -9 9 51 115 65 115 2 0 -10 -27 -28 -60z m181 -59
c-7 -47 -17 -95 -23 -106 -6 -11 -11 -23 -12 -27 0 -3 -4 -10 -9 -15 -5 -5 -6
-2 -2 7 4 8 -2 4 -14 -10 l-21 -25 6 60 c8 69 11 76 29 69 8 -3 17 -1 21 5 3
6 1 11 -4 11 -18 0 -13 45 10 97 28 64 35 41 19 -66z m76 31 c-9 -40 -48 -143
-52 -139 -2 2 5 35 16 73 11 38 20 82 20 99 1 26 2 28 11 12 6 -10 8 -30 5
-45z m-762 23 c3 -8 1 -15 -4 -15 -6 0 -10 7 -10 15 0 8 2 15 4 15 2 0 6 -7
10 -15z m39 7 c-6 -4 -15 -20 -18 -35 -4 -15 -12 -30 -18 -34 -7 -4 -8 0 -2
13 4 10 10 29 12 42 3 12 13 22 22 22 11 0 12 -3 4 -8z m384 -57 c-2 -61 -3
-64 -14 -38 -15 35 -16 22 -2 -37 6 -25 17 -52 25 -61 13 -14 13 -24 3 -61 -6
-23 -11 -63 -10 -86 3 -45 -14 -102 -30 -102 -12 0 -11 47 1 55 15 9 0 27 -17
21 -9 -4 -13 -1 -10 6 2 7 -5 28 -16 47 -17 29 -18 34 -4 28 11 -4 14 -2 10 8
-3 8 -9 13 -13 10 -4 -3 -4 14 2 37 5 23 7 47 4 54 -5 13 22 105 34 114 3 3
12 20 19 38 8 17 15 32 16 32 2 0 2 -29 2 -65z m1142 48 c-13 -14 -11 -14 20
1 57 30 31 -5 -28 -38 -50 -27 -151 -60 -159 -52 -2 2 21 15 50 29 29 14 68
36 87 51 40 30 49 33 30 9z m207 2 c-23 -17 -36 -19 -36 -6 0 5 8 12 18 14 32
9 37 6 18 -8z m64 5 c0 -5 -5 -10 -11 -10 -5 0 -7 5 -4 10 3 6 8 10 11 10 2 0
4 -4 4 -10z m-1219 -23 c-10 -9 -11 -8 -5 6 3 10 9 15 12 12 3 -3 0 -11 -7
-18z m316 -39 c-2 -13 -4 -3 -4 22 0 25 2 35 4 23 2 -13 2 -33 0 -45z m493 53
c0 -5 -7 -11 -15 -15 -15 -5 -20 5 -8 17 9 10 23 9 23 -2z m-1350 -25 c0 -2
-7 -7 -16 -10 -8 -3 -12 -2 -9 4 6 10 25 14 25 6z m-250 -66 c-65 -62 -160
-112 -156 -82 2 9 9 18 17 20 18 6 110 81 127 104 7 9 25 16 42 16 30 -1 30
-1 -30 -58z m475 -82 c9 -37 18 -75 22 -85 5 -13 -2 -11 -26 10 -18 15 -36 27
-40 27 -4 0 -17 8 -27 18 -30 26 -22 108 14 145 l27 28 8 -38 c4 -21 14 -68
22 -105z m1455 137 c0 -5 -55 -35 -64 -35 -3 0 2 9 11 20 15 17 53 28 53 15z
m-1774 -173 c-3 -2 -9 -1 -15 3 -8 4 -8 13 0 28 11 21 10 20 -16 -3 -21 -19
-27 -21 -22 -7 7 18 -8 24 -18 6 -4 -6 -13 -8 -20 -5 -8 3 -19 -2 -25 -9 -7
-8 -17 -12 -23 -8 -6 3 -7 1 -3 -5 3 -6 -4 -20 -16 -32 -13 -12 -23 -26 -23
-32 0 -11 -51 -46 -68 -47 -5 -1 3 13 18 30 32 39 24 51 -12 18 l-27 -24 25
35 c13 19 24 40 24 45 0 6 8 9 18 9 9 -1 14 2 12 7 -3 4 9 12 27 17 18 5 32
14 30 21 -1 6 3 11 8 11 14 0 57 40 44 40 -5 1 1 6 13 13 12 7 21 15 20 19 -1
4 7 14 18 22 19 14 20 12 28 -66 4 -45 5 -83 3 -86z m371 136 c-3 -8 -6 -5 -6
6 -1 11 2 17 5 13 3 -3 4 -12 1 -19z m1283 14 c0 -17 -156 -81 -210 -87 l-55
-6 69 23 c65 22 68 24 45 34 -21 10 -14 12 56 23 43 6 81 14 84 16 7 7 11 6
11 -3z m180 3 c0 -9 -75 -52 -92 -52 -13 0 -15 4 -7 18 5 10 17 23 27 28 17
11 72 15 72 6z m-1365 -69 c5 -41 3 -56 -4 -52 -6 4 -11 32 -11 63 0 70 5 66
15 -11z m-108 12 c-3 -8 -6 -5 -6 6 -1 11 2 17 5 13 3 -3 4 -12 1 -19z m-327
-20 c0 -19 -16 -5 -17 14 -2 18 0 20 7 8 5 -8 10 -18 10 -22z m907 0 c-3 -7
-5 -2 -5 12 0 14 2 19 5 13 2 -7 2 -19 0 -25z m808 -7 c-3 -6 -11 -11 -17 -11
-6 0 -6 6 2 15 14 17 26 13 15 -4z m-2125 6 c0 -2 -17 -19 -37 -38 l-38 -34
34 38 c33 34 41 42 41 34z m9 -23 l-24 -26 25 7 c24 7 24 7 8 -12 -10 -11 -18
-27 -18 -36 0 -16 -58 -77 -73 -77 -9 0 22 51 37 62 6 4 8 10 4 13 -3 3 -13
-1 -22 -10 -9 -9 -16 -13 -16 -8 0 10 89 113 98 113 3 0 -5 -12 -19 -26z
m2011 21 c0 -2 -18 -14 -41 -25 -32 -17 -46 -19 -67 -11 -18 6 -21 10 -9 10 9
1 16 4 16 9 -1 4 -1 10 0 15 1 8 101 10 101 2z m154 -4 c3 -5 -6 -16 -20 -26
l-25 -16 16 25 c19 29 21 30 29 17z m-1721 -45 c4 -10 1 -13 -8 -9 -8 3 -12 9
-9 14 7 12 11 11 17 -5z m1458 -5 c-17 -11 88 -26 120 -18 14 4 18 2 13 -3
-20 -20 -129 -50 -173 -48 -44 1 -44 2 -8 5 38 4 53 23 17 23 -11 0 -20 5 -20
10 0 6 -12 10 -27 11 -23 1 -20 3 17 14 56 16 81 19 61 6z m-924 -23 c-3 -8
-6 -5 -6 6 -1 11 2 17 5 13 3 -3 4 -12 1 -19z m-606 -43 c1 -16 3 -43 4 -60 3
-27 0 -30 -28 -32 -18 -1 -27 1 -21 5 6 4 11 14 11 22 0 8 4 24 9 34 6 15 4
17 -7 11 -11 -6 -12 -5 -1 6 6 7 12 17 12 22 0 4 -6 5 -12 1 -9 -5 -9 -2 1 9
9 11 10 17 2 17 -6 0 -11 5 -11 10 0 6 8 5 20 -2 12 -8 21 -25 21 -43z m-251
32 c0 -2 -10 -12 -22 -23 l-23 -19 19 23 c18 21 26 27 26 19z m903 -17 c-6
-23 -33 -49 -33 -31 0 6 5 11 12 11 6 0 8 3 5 7 -4 3 -2 12 4 20 15 18 18 16
12 -7z m-1113 7 c0 -2 -10 -12 -22 -23 l-23 -19 19 23 c18 21 26 27 26 19z
m560 -8 c12 -9 11 -10 -5 -4 -13 4 -24 -1 -36 -16 -9 -12 -21 -19 -28 -15 -15
9 -5 25 23 36 28 11 29 11 46 -1z m-492 -61 c1 -18 4 -45 8 -61 5 -21 1 -33
-18 -51 -24 -24 -24 -24 -25 -3 -1 11 3 28 10 36 10 12 9 14 -5 8 -11 -4 -18
-2 -18 5 0 6 8 20 18 31 16 19 16 20 -1 14 -16 -6 -15 -2 5 22 13 17 24 30 24
30 1 1 2 -14 2 -31z m478 24 c-3 -5 2 -21 10 -37 8 -15 13 -29 12 -30 -2 0
-14 -7 -28 -13 -14 -7 -17 -10 -7 -8 9 3 17 1 17 -4 0 -6 -6 -10 -14 -10 -8 0
-18 -4 -21 -10 -3 -5 0 -7 8 -4 8 3 20 -2 27 -11 10 -12 10 -15 -3 -15 -9 0
-21 -9 -27 -20 -9 -16 -8 -19 6 -13 12 4 15 3 10 -5 -4 -8 2 -16 16 -22 18 -8
18 -10 3 -6 -11 2 -29 7 -40 12 -19 8 -19 7 -2 -10 9 -9 17 -19 17 -21 0 -3
-8 -2 -17 1 -10 3 -7 -1 6 -9 18 -11 20 -16 10 -20 -9 -4 -7 -6 6 -6 17 -1 17
-3 5 -11 -10 -6 -11 -10 -3 -10 7 0 12 -6 10 -12 -1 -7 5 -13 13 -12 10 1 17
-8 18 -24 3 -34 7 -37 34 -18 13 10 17 16 8 16 -10 0 -8 5 6 16 12 10 14 14 4
11 -12 -4 -15 4 -14 40 1 34 -2 43 -12 39 -7 -3 -16 -1 -19 4 -4 6 -1 10 5 10
7 0 6 5 -2 14 -7 7 -20 11 -28 8 -13 -5 -13 -4 0 10 13 14 16 14 28 -1 10 -12
15 -13 18 -3 3 6 10 10 15 6 5 -3 9 -3 9 1 0 3 -10 10 -22 15 -19 8 -17 9 10
4 19 -3 39 -1 47 6 15 12 35 6 35 -11 0 -5 -7 -9 -16 -9 -8 0 -12 -5 -9 -10 4
-6 11 -7 17 -4 22 14 70 14 65 1 -2 -6 -13 -11 -23 -9 -13 1 -10 -3 9 -14 16
-8 35 -13 43 -10 22 8 17 -8 -10 -33 -15 -14 -22 -30 -19 -42 3 -10 0 -19 -6
-19 -6 0 -11 -9 -11 -20 0 -24 3 -24 40 -5 26 13 28 13 25 -3 -2 -9 -4 -18 -5
-19 -2 -2 -3 -8 -4 -13 0 -6 -5 -14 -11 -18 -5 -4 -11 -14 -13 -22 -3 -11 1
-11 16 3 35 32 32 17 -5 -20 -22 -24 -38 -33 -40 -25 -3 6 -12 12 -21 12 -15
0 -15 -2 -2 -10 13 -9 13 -11 1 -19 -8 -5 -16 -22 -18 -37 -3 -21 -1 -25 11
-21 9 4 16 2 16 -3 0 -6 -4 -10 -8 -10 -4 0 -8 -9 -9 -19 -1 -14 3 -18 15 -14
14 4 15 3 2 -6 -12 -8 -23 -3 -50 24 -29 29 -43 35 -78 35 -35 0 -42 3 -42 19
0 11 -4 22 -8 25 -8 4 -15 32 -37 134 -3 12 -7 32 -10 45 -11 49 -22 175 -21
226 2 45 6 55 27 67 28 15 43 18 35 6z m537 -27 c-3 -9 -8 -14 -10 -11 -3 3
-2 9 2 15 9 16 15 13 8 -4z m-378 -5 c-3 -5 0 -10 7 -10 10 0 10 -2 -1 -9 -11
-7 -8 -11 10 -17 13 -4 29 -7 34 -5 5 1 7 -1 3 -5 -5 -4 -20 -9 -35 -10 -18
-2 -23 0 -15 5 19 11 -13 23 -42 16 -17 -5 -17 -3 4 9 14 9 21 15 17 16 -12 0
2 20 14 20 6 0 7 -4 4 -10z m-471 -34 c-10 -8 -21 -12 -24 -9 -3 2 4 11 14 19
11 7 22 12 25 9 2 -3 -4 -12 -15 -19z m841 -6 c-1 -11 -7 -26 -14 -33 -10 -9
-11 -8 -7 6 3 9 8 24 11 32 6 21 12 19 10 -5z m1015 11 c0 -6 -4 -13 -10 -16
-5 -3 -10 -2 -10 4 0 5 -8 12 -17 14 -11 3 -7 5 10 6 15 0 27 -3 27 -8z
m-1847 -22 c-8 -8 -9 -19 -1 -38 5 -14 11 -51 13 -81 6 -108 28 -196 45 -185
13 8 19 -34 6 -44 -6 -5 -23 -12 -38 -16 -26 -7 -26 -6 -33 52 -3 32 -9 69
-12 83 -10 38 -10 180 -1 186 4 3 8 10 8 16 0 6 -10 3 -22 -8 -13 -10 -10 -4
6 14 17 17 32 32 35 32 3 0 0 -5 -6 -11z m402 0 c11 -16 1 -19 -13 -3 -7 8 -8
14 -3 14 5 0 13 -5 16 -11z m-55 -3 c0 -3 -4 -8 -10 -11 -5 -3 -10 -1 -10 4 0
6 5 11 10 11 6 0 10 -2 10 -4z m116 -23 c-1 -1 -12 0 -25 4 -15 4 -19 8 -10
13 10 7 42 -10 35 -17z m-597 -65 c15 -43 14 -46 -14 -44 -14 0 -25 7 -25 14
0 7 5 10 10 7 6 -3 10 0 10 8 0 8 -7 17 -15 21 -8 3 -12 12 -9 20 9 22 31 8
43 -26z m-142 -20 c-3 -8 -6 -5 -6 6 -1 11 2 17 5 13 3 -3 4 -12 1 -19z m60
-44 c8 4 13 -3 13 -16 0 -21 -1 -20 -30 7 -16 16 -30 38 -29 49 0 17 4 14 17
-12 9 -19 21 -31 29 -28z m1398 45 c28 -5 75 -9 106 -9 44 1 58 -3 63 -16 7
-17 -11 -47 -23 -39 -4 2 -20 -5 -37 -16 -30 -19 -122 -25 -171 -11 -31 10
-94 63 -90 76 3 10 48 22 87 24 8 0 38 -4 65 -9z m-150 -39 c3 -5 -1 -10 -10
-10 -9 0 -13 5 -10 10 3 6 8 10 10 10 2 0 7 -4 10 -10z m-1145 -48 c8 -9 20
-27 25 -42 6 -14 19 -49 30 -78 11 -30 26 -52 35 -53 10 0 8 -3 -5 -8 -14 -6
-24 -3 -34 11 -7 11 -19 17 -27 14 -7 -3 -16 0 -20 6 -4 7 -3 8 4 4 21 -13 13
20 -9 40 -31 28 -82 104 -69 104 5 0 10 9 10 20 0 18 3 19 22 9 13 -7 29 -19
38 -27z m303 -34 c7 -7 12 -23 11 -35 -1 -13 2 -23 6 -23 4 0 10 -6 13 -13 4
-10 -6 -14 -35 -15 -22 -1 -45 -5 -51 -9 -7 -3 -1 6 13 22 22 25 23 27 5 21
-16 -6 -18 -5 -7 5 15 16 16 33 1 23 -8 -4 -8 0 0 15 13 24 27 27 44 9z m-467
-50 l29 -33 -32 29 c-18 17 -33 31 -33 33 0 8 8 1 36 -29z m124 -3 c19 -19 32
-35 29 -35 -3 0 -20 16 -39 35 -19 19 -32 35 -29 35 3 0 20 -16 39 -35z m795
5 c-3 -5 -14 -10 -23 -10 -15 0 -15 2 -2 10 20 13 33 13 25 0z m-21 -35 c-4
-9 -16 -21 -28 -27 -20 -11 -20 -10 -6 8 13 17 31 33 37 34 1 0 0 -7 -3 -15z
m-362 -34 c9 -1 32 -45 42 -78 6 -20 4 -23 -18 -23 -14 0 -26 5 -26 11 0 6 -8
2 -17 -10 -25 -30 -162 -65 -183 -46 -18 15 -103 45 -129 45 -42 0 -27 16 35
37 l68 23 25 -23 26 -22 -19 23 c-22 25 -23 23 29 50 35 18 98 23 167 13z
m235 -57 c-3 -3 -12 -4 -19 -1 -8 3 -5 6 6 6 11 1 17 -2 13 -5z m1723 -8 c0
-2 -7 -9 -15 -16 -13 -11 -14 -10 -9 4 5 14 24 23 24 12z m-2207 -70 c20 -8
37 -18 37 -21 0 -3 -5 -3 -10 0 -6 4 -38 11 -72 15 -34 5 -68 15 -75 23 -13
12 -8 13 34 7 27 -5 66 -15 86 -24z m412 -6 c36 -37 39 -45 43 -105 l4 -65
-46 0 -47 0 16 31 c9 17 14 33 11 36 -3 3 -10 -6 -15 -20 -6 -14 -18 -30 -28
-35 -22 -12 -116 -7 -121 7 -2 5 -10 7 -18 4 -32 -12 -138 19 -182 54 -23 19
-40 39 -36 44 3 5 9 7 13 5 11 -7 134 21 206 49 37 14 74 25 81 25 8 0 23 -15
34 -32 11 -18 20 -28 20 -23 0 6 -7 20 -15 31 -35 50 30 45 80 -6z m-405 -26
c0 -2 -13 -4 -30 -4 -16 0 -30 4 -30 8 0 5 14 7 30 4 17 -2 30 -6 30 -8z
m-459 -11 c13 -16 12 -17 -3 -4 -10 7 -18 15 -18 17 0 8 8 3 21 -13z m87 -58
c-3 -3 -9 2 -12 12 -6 14 -5 15 5 6 7 -7 10 -15 7 -18z m499 -61 c-3 -3 -12
-4 -19 -1 -8 3 -5 6 6 6 11 1 17 -2 13 -5z m63 -25 c0 -17 -43 -21 -58 -5 -14
14 -13 15 21 14 20 -1 37 -5 37 -9z m350 -20 c40 -23 61 -55 55 -85 -2 -11 -4
-27 -4 -36 -1 -21 -31 -24 -31 -4 0 20 -17 29 -26 15 -4 -8 -3 -9 4 -5 7 4 12
3 12 -2 0 -5 -11 -9 -25 -9 -22 0 -24 2 -13 16 12 14 11 15 -6 1 -24 -19 -87
-23 -151 -10 -27 6 -60 12 -73 15 -28 5 -90 55 -91 73 -1 6 -6 12 -12 12 -5 0
-7 5 -3 11 4 8 9 7 15 -2 6 -11 12 -10 27 4 10 9 35 17 54 17 29 0 42 -7 68
-37 26 -31 28 -32 11 -6 -12 17 -21 34 -21 37 0 3 35 7 78 9 42 1 81 4 86 5 4
1 25 -8 46 -19z m1427 6 c0 -8 -4 -12 -9 -9 -4 3 -8 9 -8 15 0 5 4 9 8 9 5 0
9 -7 9 -15z m239 -183 c-2 -2 -14 2 -26 8 -18 10 -20 14 -9 21 9 6 18 3 26 -8
7 -9 11 -18 9 -21z m-2701 -2 c-3 -5 -12 -10 -18 -10 -7 0 -6 4 3 10 19 12 23
12 15 0z m5 -32 c0 -7 -12 -19 -27 -25 l-26 -13 23 25 c27 29 30 30 30 13z
m1235 -6 c-3 -3 -11 0 -18 7 -9 10 -8 11 6 5 10 -3 15 -9 12 -12z m45 -12 c-8
-5 -22 -10 -30 -10 -13 0 -13 1 0 10 8 5 22 10 30 10 13 0 13 -1 0 -10z m-892
-50 c31 -30 58 -48 65 -44 9 5 9 4 0 -6 -9 -10 -19 -7 -51 18 -22 17 -43 28
-47 24 -5 -4 -5 1 -2 11 4 9 2 17 -2 17 -5 0 -11 7 -15 15 -8 22 -5 20 52 -35z
m1323 -67 c-12 -20 -14 -14 -5 12 4 9 9 14 11 11 3 -2 0 -13 -6 -23z m-1673
-48 c-3 -3 -9 2 -12 12 -6 14 -5 15 5 6 7 -7 10 -15 7 -18z m2651 -22 c-2 -71
-15 -92 -15 -25 -1 34 3 62 8 62 4 0 8 -17 7 -37z m-1169 -20 c-8 -4 -22 -14
-31 -25 -9 -10 -27 -17 -40 -17 -19 1 -20 2 -5 6 10 3 28 14 39 24 12 10 28
19 36 18 14 0 14 -1 1 -6z m630 -3 c0 -5 -5 -10 -11 -10 -5 0 -7 5 -4 10 3 6
8 10 11 10 2 0 4 -4 4 -10z m-924 -45 c12 -12 12 -15 2 -15 -8 0 -9 -3 -3 -8
17 -12 16 -32 -1 -25 -13 5 -15 1 -10 -15 3 -12 8 -31 11 -41 4 -11 21 -24 43
-30 34 -10 35 -10 5 -6 -18 2 -33 1 -33 -3 0 -12 70 -36 130 -43 l55 -7 -58 1
c-31 1 -57 -2 -57 -7 0 -4 -6 -6 -14 -3 -8 3 -16 2 -18 -3 -2 -6 -31 22 -65
61 l-61 71 26 44 c15 24 28 44 30 44 2 0 10 -7 18 -15z m311 9 c-3 -3 -12 -4
-19 -1 -8 3 -5 6 6 6 11 1 17 -2 13 -5z m-1477 -39 c0 -5 -5 -3 -10 5 -5 8
-10 20 -10 25 0 6 5 3 10 -5 5 -8 10 -19 10 -25z m1347 29 c-3 -3 -12 -4 -19
-1 -8 3 -5 6 6 6 11 1 17 -2 13 -5z m-52 -14 c3 -5 1 -10 -4 -10 -6 0 -11 5
-11 10 0 6 2 10 4 10 3 0 8 -4 11 -10z m-417 -54 c-2 -6 0 -11 3 -11 13 0 48
-38 43 -47 -3 -5 0 -15 6 -23 10 -11 7 -15 -15 -21 -18 -4 -23 -9 -15 -14 7
-4 -2 -7 -21 -5 -37 3 -35 -5 -31 106 2 45 4 50 17 39 8 -7 14 -18 13 -24z
m472 30 c0 -9 -40 -13 -46 -5 -3 5 6 9 20 9 14 0 26 -2 26 -4z m80 -10 c0 -2
-15 -6 -34 -8 -19 -2 -32 0 -30 4 5 8 64 12 64 4z m-74 -41 c-8 -8 -25 -14
-38 -14 -17 1 -18 3 -5 6 9 2 15 9 12 14 -4 5 6 9 20 9 24 0 25 -2 11 -15z
m-151 -15 c3 -6 -1 -7 -9 -4 -18 7 -21 14 -7 14 6 0 13 -4 16 -10z m148 -21
c-12 -12 -26 -18 -33 -14 -8 5 -2 13 17 25 35 22 43 16 16 -11z m485 -1 c-3
-14 -18 -28 -31 -28 -4 0 -3 9 3 20 12 22 31 27 28 8z m-1883 -114 c18 -44 18
-44 3 -44 -6 0 -9 3 -6 6 4 3 0 21 -8 40 -8 19 -12 34 -9 34 2 0 12 -16 20
-36z m2380 17 c-3 -6 -11 -11 -17 -11 -6 0 -6 6 2 15 14 17 26 13 15 -4z
m-1075 -23 c0 -6 -6 -5 -15 2 -8 7 -15 14 -15 16 0 2 7 1 15 -2 8 -4 15 -11
15 -16z m990 8 c0 -2 -8 -10 -17 -17 -16 -13 -17 -12 -4 4 13 16 21 21 21 13z
m54 -4 c3 -5 -21 -33 -52 -63 l-57 -54 48 50 c26 28 47 56 47 63 0 14 7 16 14
4z m-930 -28 c33 -12 37 -12 33 1 -5 11 -1 12 19 5 35 -14 39 -13 23 7 -13 15
-12 15 8 5 25 -14 47 -16 40 -4 -4 5 126 7 187 3 6 -1 1 -8 -10 -16 -13 -10
-15 -14 -5 -15 8 0 23 8 34 17 19 17 19 17 12 -7 -7 -21 -6 -23 7 -12 12 10
18 9 28 -3 10 -12 10 -18 -1 -32 -15 -17 -20 -63 -7 -63 4 0 8 3 8 8 0 4 10
18 21 32 l20 25 -6 -25 c-6 -24 -5 -24 19 5 21 24 26 26 26 12 0 -17 1 -17 16
-3 8 9 24 16 33 16 10 0 24 7 31 15 12 14 15 14 30 0 9 -8 22 -15 29 -15 7 0
-1 -11 -17 -25 -17 -14 -35 -25 -40 -25 -6 0 -18 -10 -26 -22 -9 -12 -16 -17
-16 -11 0 6 16 25 36 43 20 17 33 34 30 37 -3 4 -16 -3 -29 -14 -12 -11 -27
-19 -34 -16 -6 2 -28 -5 -50 -17 -21 -11 -39 -16 -41 -10 -2 5 -24 -6 -48 -26
-43 -36 -60 -41 -28 -9 9 9 14 19 11 22 -3 3 -34 -21 -69 -53 l-63 -58 58 60
c31 33 57 63 57 67 0 12 -82 -33 -114 -62 l-29 -26 21 31 c12 17 28 37 37 44
22 19 18 32 -6 19 -15 -8 -19 -8 -15 0 12 19 -6 12 -31 -11 -22 -21 -24 -21
-17 -3 6 16 0 14 -27 -10 -19 -17 -26 -20 -15 -7 11 12 16 25 12 30 -8 7 -49
-35 -59 -60 -3 -8 -33 17 -82 70 -42 45 -81 80 -85 77 -5 -3 -12 0 -16 6 -5 8
-3 9 6 4 10 -6 12 -4 7 8 -7 19 11 17 87 -9z m-462 -36 c-7 -7 -12 -8 -12 -2
0 14 12 26 19 19 2 -3 -1 -11 -7 -17z m-1008 -4 c3 -8 2 -12 -4 -9 -6 3 -10
10 -10 16 0 14 7 11 14 -7z m287 -1 c13 -16 12 -17 -3 -4 -17 13 -22 21 -14
21 2 0 10 -8 17 -17z m-301 -41 c0 -15 -2 -15 -10 -2 -13 20 -13 33 0 25 6 -3
10 -14 10 -23z m2110 20 c0 -5 -15 -19 -32 -32 l-33 -23 29 31 c31 34 36 37
36 24z m-1125 -59 c-9 -15 -14 -20 -11 -10 4 11 9 31 13 45 5 19 8 22 11 10 2
-9 -4 -29 -13 -45z m81 32 c-11 -8 -22 -12 -25 -9 -6 6 19 24 34 24 6 -1 1 -7
-9 -15z m914 1 c0 -2 -8 -10 -17 -17 -16 -13 -17 -12 -4 4 13 16 21 21 21 13z
m165 -26 c-3 -5 -12 -10 -18 -10 -7 0 -6 4 3 10 19 12 23 12 15 0z m-865 -25
c13 -14 21 -25 18 -25 -2 0 -15 11 -28 25 -13 14 -21 25 -18 25 2 0 15 -11 28
-25z m-239 -12 c-12 -20 -14 -14 -5 12 4 9 9 14 11 11 3 -2 0 -13 -6 -23z
m555 -27 c0 -14 -5 -21 -9 -17 -4 4 -5 15 -1 24 9 24 12 21 10 -7z m-573 -11
c-7 -21 -13 -19 -13 6 0 11 4 18 10 14 5 -3 7 -12 3 -20z m1407 -19 c0 -2 -8
-10 -17 -17 -16 -13 -17 -12 -4 4 13 16 21 21 21 13z"/>
<path d="M2050 2125 c-7 -8 -8 -15 -2 -15 5 0 15 7 22 15 7 8 8 15 2 15 -5 0
-15 -7 -22 -15z"/>
<path d="M1569 2003 c-13 -16 -12 -17 4 -4 9 7 17 15 17 17 0 8 -8 3 -21 -13z"/>
<path d="M1790 1936 c7 -7 13 -7 20 0 6 6 3 10 -10 10 -13 0 -16 -4 -10 -10z"/>
<path d="M1990 1811 c0 -6 4 -13 10 -16 6 -3 7 1 4 9 -7 18 -14 21 -14 7z"/>
<path d="M2477 1738 c-78 -81 -138 -171 -125 -189 8 -11 9 -11 5 3 -3 9 2 23
12 32 16 15 19 15 36 -4 21 -23 14 -47 -17 -60 -13 -5 -17 -9 -10 -9 22 -1 52
19 52 34 0 8 4 15 10 15 19 0 23 49 5 76 -13 20 -14 28 -4 40 10 13 14 12 30
-1 16 -15 18 -15 24 4 3 12 4 29 0 40 -6 19 20 49 32 37 4 -3 10 -25 14 -49 6
-42 7 -42 8 15 0 31 -4 60 -10 64 -6 3 -34 -18 -62 -48z"/>
<path d="M1243 1668 c-15 -20 -25 -38 -20 -38 3 0 12 11 21 25 17 26 16 35 -1
13z"/>
<path d="M2517 1564 c-10 -19 -31 -43 -48 -52 -58 -32 -76 -54 -20 -25 39 20
60 39 74 66 11 21 17 40 15 42 -2 3 -12 -11 -21 -31z"/>
<path d="M1310 1575 c-19 -22 -8 -25 13 -3 9 10 13 18 8 18 -5 0 -14 -7 -21
-15z"/>
<path d="M1415 1535 c-46 -12 -65 -22 -65 -36 0 -6 10 -3 22 5 12 9 36 16 53
16 16 0 36 4 43 9 23 14 -8 18 -53 6z"/>
<path d="M2310 1505 c0 -3 6 -15 13 -26 11 -18 8 -23 -18 -45 -35 -28 -29 -30
20 -7 38 18 54 48 35 67 -8 8 -10 7 -5 -6 4 -10 3 -18 -3 -18 -6 0 -14 9 -17
20 -6 17 -25 29 -25 15z"/>
<path d="M2130 1488 c0 -4 6 -8 14 -8 8 0 17 4 20 8 2 4 -4 8 -15 8 -10 0 -19
-4 -19 -8z"/>
<path d="M1465 1401 c-3 -6 -11 -9 -16 -6 -5 4 -9 1 -9 -4 0 -13 10 -14 30 -1
8 5 12 12 8 15 -3 4 -9 1 -13 -4z"/>
<path d="M2040 1375 c-25 -18 -85 -56 -135 -84 -114 -64 -129 -75 -81 -56 21
8 51 15 67 15 16 0 29 4 29 8 0 5 7 9 15 9 8 0 15 -4 15 -9 0 -4 7 -8 16 -8
11 0 15 6 11 20 -6 24 1 25 27 5 17 -13 18 -15 3 -15 -9 0 -17 -5 -17 -10 0
-7 7 -7 21 0 12 7 18 18 15 26 -4 9 -2 12 5 8 6 -3 9 -14 6 -23 -2 -10 1 -18
7 -18 6 0 12 23 13 55 1 38 8 64 23 84 27 36 16 35 -40 -7z"/>
<path d="M2241 1383 c-1 -6 -4 -20 -7 -30 -5 -17 -5 -17 6 0 6 10 9 23 6 30
-3 9 -5 9 -5 0z"/>
<path d="M1235 1370 c3 -5 8 -10 11 -10 2 0 4 5 4 10 0 6 -5 10 -11 10 -5 0
-7 -4 -4 -10z"/>
<path d="M2555 1149 c-4 -6 -5 -12 -2 -15 2 -3 7 2 10 11 7 17 1 20 -8 4z"/>
<path d="M2286 1132 c-2 -4 -1 -14 5 -22 7 -12 9 -10 9 8 0 23 -5 28 -14 14z"/>
<path d="M1844 969 c-3 -6 -2 -15 3 -20 5 -5 9 -1 9 11 0 23 -2 24 -12 9z"/>
<path d="M1200 940 c8 -15 21 -20 50 -20 21 0 42 5 45 10 4 6 -3 9 -17 7 -12
-2 -29 2 -36 10 -7 7 -22 13 -33 13 -17 0 -18 -3 -9 -20z"/>
<path d="M1328 923 c7 -3 16 -2 19 1 4 3 -2 6 -13 5 -11 0 -14 -3 -6 -6z"/>
<path d="M1370 921 c18 -11 142 -43 146 -38 2 2 -18 10 -44 19 -56 19 -124 32
-102 19z"/>
<path d="M1554 859 c30 -23 38 -24 34 -3 -2 10 -15 18 -31 20 l-28 3 25 -20z"/>
<path d="M1945 821 c-3 -5 -2 -12 3 -15 5 -3 9 1 9 9 0 17 -3 19 -12 6z"/>
<path d="M2436 798 c3 -4 9 -8 15 -8 5 0 9 4 9 8 0 5 -7 9 -15 9 -8 0 -12 -4
-9 -9z"/>
<path d="M1100 771 c0 -11 4 -22 9 -25 4 -3 6 6 3 19 -5 30 -12 33 -12 6z"/>
<path d="M1915 780 c-3 -5 -2 -10 4 -10 5 0 13 5 16 10 3 6 2 10 -4 10 -5 0
-13 -4 -16 -10z"/>
<path d="M2155 763 c-10 -15 -29 -41 -44 -57 -14 -16 -20 -26 -13 -22 16 9 15
6 -4 -32 -8 -18 -20 -32 -25 -32 -6 0 -7 5 -3 12 4 6 3 8 -4 4 -6 -3 -9 -16
-7 -29 3 -17 -4 -27 -33 -45 -20 -13 -28 -21 -17 -18 15 5 12 0 -10 -19 -16
-14 -30 -29 -30 -35 0 -6 -6 -15 -14 -20 -8 -4 -16 -16 -17 -25 -2 -12 3 -14
19 -9 20 6 65 44 52 44 -8 0 22 47 63 98 18 23 30 42 26 42 -3 0 -1 6 6 14 17
21 81 148 76 153 -2 2 -11 -9 -21 -24z m-180 -303 c-3 -5 -14 -10 -23 -10 -15
0 -15 2 -2 10 20 13 33 13 25 0z"/>
<path d="M1175 740 c-3 -5 -11 -7 -18 -4 -7 2 -18 -5 -25 -17 -12 -19 -12 -20
9 -14 16 5 20 4 14 -6 -4 -8 3 -3 14 11 19 24 26 40 17 40 -3 0 -7 -4 -11 -10z"/>
<path d="M1558 729 c-21 -11 -38 -21 -38 -24 0 -7 53 17 70 32 18 16 14 15
-32 -8z"/>
<path d="M2075 541 c-3 -5 -1 -12 4 -15 5 -3 11 1 15 9 6 16 -9 21 -19 6z"/>
<path d="M1706 501 c-3 -4 6 -8 19 -9 13 -1 26 2 29 6 2 4 -7 8 -20 8 -13 1
-26 -1 -28 -5z"/>
<path d="M1750 480 c-9 -6 -10 -10 -3 -10 6 0 15 5 18 10 8 12 4 12 -15 0z"/>
<path d="M1695 470 c28 -12 37 -12 30 0 -3 6 -16 10 -28 9 -21 0 -21 -1 -2 -9z"/>
<path d="M1661 446 c2 -2 18 -6 34 -10 22 -5 26 -4 15 4 -14 9 -59 15 -49 6z"/>
<path d="M613 2015 c0 -8 4 -12 9 -9 5 3 6 10 3 15 -9 13 -12 11 -12 -6z"/>
<path d="M820 1750 c-8 -5 -12 -12 -9 -15 4 -3 12 1 19 10 14 17 11 19 -10 5z"/>
<path d="M803 1655 c0 -7 6 -11 14 -8 7 3 13 6 13 8 0 2 -6 5 -13 8 -8 3 -14
-1 -14 -8z"/>
<path d="M918 1393 c7 -3 16 -2 19 1 4 3 -2 6 -13 5 -11 0 -14 -3 -6 -6z"/>
<path d="M958 1383 c7 -3 16 -2 19 1 4 3 -2 6 -13 5 -11 0 -14 -3 -6 -6z"/>
<path d="M938 1353 c7 -3 16 -2 19 1 4 3 -2 6 -13 5 -11 0 -14 -3 -6 -6z"/>
<path d="M972 1341 c-11 -7 -11 -9 0 -14 9 -3 15 1 15 9 0 8 -1 14 -1 14 -1 0
-7 -4 -14 -9z"/>
<path d="M1887 1563 c-4 -3 -7 -11 -7 -17 0 -6 5 -5 12 2 6 6 9 14 7 17 -3 3
-9 2 -12 -2z"/>
<path d="M866 1104 c-14 -16 -23 -30 -20 -34 3 -3 12 3 19 13 13 18 35 19 46
3 4 -4 9 -4 13 2 3 5 -3 17 -13 26 -18 16 -20 16 -45 -10z"/>
<path d="M2240 2789 c0 -5 5 -7 10 -4 6 3 10 8 10 11 0 2 -4 4 -10 4 -5 0 -10
-5 -10 -11z"/>
<path d="M305 2780 c-3 -6 1 -7 9 -4 18 7 21 14 7 14 -6 0 -13 -4 -16 -10z"/>
<path d="M342 2720 c0 -14 2 -19 5 -12 2 6 2 18 0 25 -3 6 -5 1 -5 -13z"/>
<path d="M297 2711 c-3 -13 -1 -18 9 -14 7 2 10 11 7 19 -7 19 -10 18 -16 -5z"/>
<path d="M2 2693 c1 -20 6 -29 15 -26 10 4 10 10 1 26 -17 33 -19 33 -16 0z"/>
<path d="M40 2678 c0 -9 5 -20 10 -23 13 -8 13 5 0 25 -8 13 -10 13 -10 -2z"/>
<path d="M242 2680 c0 -8 4 -26 8 -40 6 -20 8 -21 8 -5 0 11 -3 29 -8 40 -5
12 -8 14 -8 5z"/>
<path d="M271 2674 c0 -11 3 -14 6 -6 3 7 2 16 -1 19 -3 4 -6 -2 -5 -13z"/>
<path d="M331 2663 c-1 -12 4 -25 9 -28 12 -7 12 2 0 30 -8 19 -9 19 -9 -2z"/>
<path d="M181 2644 c0 -11 3 -14 6 -6 3 7 2 16 -1 19 -3 4 -6 -2 -5 -13z"/>
<path d="M171 2604 c0 -11 3 -14 6 -6 3 7 2 16 -1 19 -3 4 -6 -2 -5 -13z"/>
<path d="M132 2570 c0 -14 2 -19 5 -12 2 6 2 18 0 25 -3 6 -5 1 -5 -13z"/>
<path d="M0 2571 c0 -6 4 -13 10 -16 6 -3 7 1 4 9 -7 18 -14 21 -14 7z"/>
<path d="M196 2557 c3 -10 9 -15 12 -12 3 3 0 11 -7 18 -10 9 -11 8 -5 -6z"/>
<path d="M100 2491 c0 -25 6 -27 13 -6 4 8 2 17 -3 20 -6 4 -10 -3 -10 -14z"/>
<path d="M100 2451 c0 -6 4 -13 10 -16 6 -3 7 1 4 9 -7 18 -14 21 -14 7z"/>
<path d="M141 2404 c0 -11 3 -14 6 -6 3 7 2 16 -1 19 -3 4 -6 -2 -5 -13z"/>
<path d="M110 2381 c0 -11 4 -22 9 -25 4 -3 6 6 3 19 -5 30 -12 33 -12 6z"/>
<path d="M90 2340 c6 -11 13 -20 16 -20 2 0 0 9 -6 20 -6 11 -13 20 -16 20 -2
0 0 -9 6 -20z"/>
<path d="M151 2334 c0 -11 3 -14 6 -6 3 7 2 16 -1 19 -3 4 -6 -2 -5 -13z"/>
<path d="M136 2277 c3 -10 9 -15 12 -12 3 3 0 11 -7 18 -10 9 -11 8 -5 -6z"/>
<path d="M0 1495 c0 -8 2 -15 4 -15 2 0 6 7 10 15 3 8 1 15 -4 15 -6 0 -10 -7
-10 -15z"/>
<path d="M17 1166 c-14 -11 -17 -30 -17 -126 0 -103 1 -112 18 -105 9 4 32 9
50 12 36 6 56 32 45 59 -4 12 -3 15 5 10 16 -10 15 6 0 24 -7 8 -4 7 7 -2 16
-13 22 -14 32 -3 10 10 9 16 -2 25 -8 7 -15 19 -15 26 0 8 -4 14 -9 14 -5 0
-22 18 -38 40 -28 37 -30 38 -48 22 -18 -16 -18 -16 -6 1 16 20 4 22 -22 3z
m57 -24 c3 -5 -1 -9 -9 -9 -8 0 -12 4 -9 9 3 4 7 8 9 8 2 0 6 -4 9 -8z m-20
-47 l17 -30 -20 24 c-12 13 -21 28 -21 34 0 12 0 11 24 -28z"/>
<path d="M2785 1080 c3 -5 8 -10 11 -10 2 0 4 5 4 10 0 6 -5 10 -11 10 -5 0
-7 -4 -4 -10z"/>
<path d="M596 1041 c-4 -5 3 -7 14 -4 23 6 26 13 6 13 -8 0 -17 -4 -20 -9z"/>
<path d="M2786 1014 c3 -35 14 -43 14 -11 0 14 -4 28 -9 31 -4 3 -7 -6 -5 -20z"/>
<path d="M280 922 c0 -11 27 -42 37 -42 3 0 -2 10 -13 23 -10 12 -20 24 -21
26 -2 2 -3 -1 -3 -7z"/>
<path d="M689 880 c-13 -10 -21 -19 -17 -20 14 0 58 23 58 32 0 14 -16 9 -41
-12z"/>
<path d="M271 863 c0 -20 2 -23 7 -11 6 15 12 14 57 -14 l50 -30 -29 30 c-16
17 -32 30 -35 29 -3 -1 -16 4 -28 11 -21 12 -23 11 -22 -15z"/>
<path d="M240 740 c-7 -55 -16 -100 -20 -100 -12 0 -3 -61 10 -74 8 -8 10 -3
5 19 l-7 30 26 -30 c14 -16 25 -33 26 -37 0 -4 10 -18 23 -31 12 -14 30 -36
40 -51 10 -15 21 -25 25 -22 4 2 18 -8 32 -22 14 -14 17 -20 8 -13 -13 10 -18
10 -18 2 0 -6 10 -15 23 -20 12 -5 31 -18 41 -30 11 -11 24 -21 29 -21 6 0 25
-11 43 -25 60 -45 58 -26 -2 23 -98 79 -162 145 -168 175 -9 40 6 33 50 -20
21 -27 54 -64 74 -83 19 -20 25 -24 13 -10 -46 53 -21 41 41 -18 35 -34 68
-62 72 -62 4 0 -30 35 -76 78 -46 42 -88 77 -93 77 -6 0 -12 6 -15 14 -3 9 0
11 9 6 8 -5 1 6 -15 23 -15 17 -26 34 -23 39 3 5 1 15 -5 23 -8 12 -9 12 -4
-2 3 -10 1 -18 -4 -18 -5 0 -13 12 -16 26 -4 17 -11 23 -22 19 -8 -3 -21 3
-28 12 -7 10 -14 13 -14 7 0 -18 37 -47 42 -33 3 9 7 7 11 -5 4 -11 3 -15 -4
-10 -8 5 -10 -5 -7 -30 2 -20 0 -36 -4 -36 -4 0 -8 6 -8 14 0 8 -8 17 -17 21
-10 3 -32 24 -49 47 l-31 40 18 49 c10 26 16 56 12 65 -4 10 -2 15 3 11 5 -3
8 11 6 34 -7 70 -19 51 -32 -51z m130 -282 c0 -14 -19 1 -31 25 -12 22 -12 22
10 3 11 -11 21 -23 21 -28z m91 -5 c13 -16 12 -17 -3 -4 -17 13 -22 21 -14 21
2 0 10 -8 17 -17z"/>
<path d="M880 816 c0 -2 8 -10 18 -17 15 -13 16 -12 3 4 -13 16 -21 21 -21 13z"/>
<path d="M131 774 c0 -11 3 -14 6 -6 3 7 2 16 -1 19 -3 4 -6 -2 -5 -13z"/>
<path d="M868 744 c18 -33 99 -106 99 -89 0 8 -25 36 -55 62 -30 26 -50 38
-44 27z"/>
<path d="M935 751 c-6 -10 11 -24 33 -27 10 -2 8 3 -4 17 -20 22 -21 22 -29
10z"/>
<path d="M131 718 c-6 -17 -9 -34 -6 -36 3 -3 5 1 5 8 0 7 10 1 21 -14 12 -15
24 -25 26 -22 3 3 -4 16 -15 31 -12 14 -18 34 -15 45 8 32 -4 23 -16 -12z"/>
<path d="M377 666 c3 -13 -1 -27 -7 -31 -9 -5 -10 -1 -6 16 6 24 6 24 -5 2 -9
-18 -8 -25 5 -38 9 -9 16 -13 16 -9 0 3 6 1 14 -5 12 -10 13 -8 9 8 -3 12 -9
21 -15 21 -5 0 -5 7 0 18 10 18 6 42 -7 42 -5 0 -6 -11 -4 -24z"/>
<path d="M266 667 c3 -10 9 -15 12 -12 3 3 0 11 -7 18 -10 9 -11 8 -5 -6z"/>
<path d="M597 579 c7 -9 11 -18 8 -21 -10 -10 28 -33 56 -33 15 0 25 3 22 8
-2 4 -9 7 -15 7 -6 0 -27 12 -47 27 -20 15 -30 20 -24 12z m49 -47 c-4 -3 -14
2 -24 12 -16 18 -16 18 6 6 13 -6 21 -14 18 -18z"/>
<path d="M201 564 c0 -11 3 -14 6 -6 3 7 2 16 -1 19 -3 4 -6 -2 -5 -13z"/>
<path d="M1020 565 c0 -15 47 -75 199 -250 263 -304 274 -315 293 -315 14 0
-14 37 -94 127 -62 69 -172 195 -245 279 -125 144 -153 173 -153 159z"/>
<path d="M10 545 c-7 -9 -8 -15 -2 -15 5 0 12 7 16 15 3 8 4 15 2 15 -2 0 -9
-7 -16 -15z"/>
<path d="M210 533 c0 -6 8 -17 18 -24 16 -13 16 -13 2 6 -8 11 -16 22 -17 24
-2 2 -3 0 -3 -6z"/>
<path d="M182 501 c13 -14 27 -30 31 -36 5 -5 1 6 -10 26 -10 20 -24 36 -31
36 -7 0 -4 -10 10 -26z"/>
<path d="M260 516 c0 -13 42 -78 47 -72 3 2 -7 22 -21 43 -14 20 -26 34 -26
29z"/>
<path d="M90 476 c0 -20 47 -92 119 -180 44 -55 78 -103 75 -108 -3 -5 0 -7 8
-6 7 2 12 -3 10 -10 -1 -8 1 -11 6 -8 12 7 54 -38 45 -49 -5 -4 -3 -5 3 -2 14
8 59 -39 73 -74 6 -18 19 -28 41 -33 54 -10 67 -5 30 12 -58 28 -298 287 -304
330 -2 9 -6 16 -10 14 -8 -3 -28 21 -70 82 -14 21 -26 36 -26 32z m365 -446
c3 -5 1 -10 -4 -10 -6 0 -11 5 -11 10 0 6 2 10 4 10 3 0 8 -4 11 -10z"/>
<path d="M285 420 c10 -11 20 -20 23 -20 3 0 -3 9 -13 20 -10 11 -20 20 -23
20 -3 0 3 -9 13 -20z"/>
<path d="M2550 428 c0 -9 5 -20 10 -23 13 -8 13 5 0 25 -8 13 -10 13 -10 -2z"/>
<path d="M131 275 c0 -5 6 -21 14 -35 8 -14 14 -20 14 -15 0 6 -6 21 -14 35
-8 14 -14 21 -14 15z"/>
<path d="M735 273 c11 -2 30 -9 42 -15 24 -12 139 -6 153 8 5 5 -34 9 -103 10
-62 0 -103 -2 -92 -3z"/>
<path d="M850 220 l-35 -7 35 -2 c19 0 42 4 50 9 13 9 13 10 0 9 -8 -1 -31 -5
-50 -9z"/>
<path d="M80 170 c0 -5 5 -10 11 -10 5 0 7 5 4 10 -3 6 -8 10 -11 10 -2 0 -4
-4 -4 -10z"/>
<path d="M2759 155 c-1 0 -3 -17 -4 -37 -1 -21 2 -35 7 -32 5 4 7 17 3 31 -4
16 -2 22 5 18 20 -12 9 -42 -30 -80 -22 -21 -40 -43 -40 -48 0 -4 21 -7 48 -5
41 3 47 6 51 28 l3 25 -22 -25 -22 -25 21 32 c28 41 27 119 -1 119 -10 0 -19
0 -19 -1z"/>
<path d="M90 141 c0 -6 4 -13 10 -16 6 -3 7 1 4 9 -7 18 -14 21 -14 7z"/>
<path d="M295 100 c10 -11 20 -20 23 -20 3 0 -3 9 -13 20 -10 11 -20 20 -23
20 -3 0 3 -9 13 -20z"/>
<path d="M2706 68 c-4 -14 -16 -34 -27 -44 -18 -16 -19 -16 -19 2 0 11 4 24 9
30 6 5 -1 9 -20 10 -16 1 -29 -4 -29 -10 0 -6 -5 -4 -10 4 -8 12 -10 11 -10
-7 0 -12 -3 -30 -6 -40 -3 -10 2 -7 10 7 14 23 15 23 16 5 0 -15 7 -21 28 -23
21 -1 37 7 63 34 18 21 29 34 22 30 -6 -3 -13 1 -16 11 -3 14 -6 12 -11 -9z
m-56 -39 c0 -11 -4 -18 -10 -14 -5 3 -7 12 -3 20 7 21 13 19 13 -6z"/>
<path d="M486 62 c-7 -11 71 -48 81 -39 3 4 -1 7 -9 7 -8 0 -27 9 -41 20 -14
11 -28 16 -31 12z"/>
<path d="M2560 21 c-6 -12 -7 -21 -1 -21 10 0 24 30 17 37 -2 3 -9 -5 -16 -16z"/>
<path d="M588 13 c7 -3 16 -2 19 1 4 3 -2 6 -13 5 -11 0 -14 -3 -6 -6z"/>
</g>
</svg>
